<?xml version="1.0" encoding="UTF-8"?>
<svg id="Berroco_Logo_black_mac_Warren_Wheelock_s_conflicted_copy_2021-03-04_Image" data-name="Berroco Logo_black_mac (Warren Wheelock&amp;apos;s conflicted copy 2021-03-04) Image" xmlns="http://www.w3.org/2000/svg" viewBox="0 0 737.76 194.88">
  <defs>
    <style>
      .cls-1 {
        fill: #5a87c5;
      }
    </style>
  </defs>
  <path class="cls-1" d="m12.54,86.59c.35-.05.61-.11.88-.11,2.76-.01,5.52-.03,8.27-.02,2,0,4-.06,5.95-.53,6.07-1.46,10.25-5.1,12.29-10.99,1.68-4.87,1.1-9.6-1.47-14.08-.13-.23-.33-.43-.47-.61-.45-.02-.63.25-.84.49-1.12,1.34-1.85,2.9-2.32,4.56-.43,1.5-.69,3.03-.78,4.6-.28,4.78-3.46,8.21-7.42,9.27-1.32.35-2.65.55-4.02.53-3.76-.03-7.51,0-11.27,0-.48,0-.95,0-1.34,0-.41-.38-.44-.8-.52-1.18-.57-2.41-1.14-4.82-1.43-7.29-.6-5.23-.54-10.45.42-15.65.82-4.46,2.1-8.78,4-12.91,1.51-3.28,3.33-6.37,5.47-9.28,3.35-4.54,7.32-8.45,11.9-11.74,6.2-4.46,13.04-7.4,20.51-8.88,4.1-.81,8.24-1.12,12.41-.92,4.08.2,8.09.85,12.04,1.98,3.28.94,6.43,2.17,9.47,3.7,2.97,1.5,5.76,3.27,8.36,5.35,4.09,3.26,7.73,6.94,10.77,11.2,2.07,2.9,3.81,6.01,5.27,9.26,2.05,4.55,3.38,9.31,4.06,14.24.58,4.13.67,8.29.26,12.44-.28,2.83-.78,5.62-1.51,8.37-.06.23-.13.46-.19.69-.1.36-.35.52-.71.52-.56,0-1.12-.02-1.68-.02-3.28,0-6.55.02-9.83.01-1.36,0-2.71-.06-4.05-.35-4.47-.95-7.73-4.93-7.91-9.24-.09-2.25-.43-4.45-1.35-6.53-.47-1.07-1.05-2.07-1.82-2.95-.17-.2-.4-.35-.64-.55-.47.38-.69.85-.93,1.3-3.69,6.88-2.33,15.22,3.25,20.47,2.35,2.2,5.14,3.47,8.22,4.19,1.76.41,3.56.47,5.36.47,2.88,0,5.76-.01,8.63-.02.19,0,.38.04.66.08-.09.32-.14.58-.25.82-1.19,2.54-2.53,4.99-4.12,7.3-.59.86-1.22,1.68-1.82,2.53-.3.43-.69.62-1.22.61-1.08-.02-2.16.02-3.23.01-2.51-.03-4.82-.68-6.82-2.25-2.44-1.93-3.65-4.48-3.83-7.56-.02-.28,0-.56,0-.84,0-.24,0-.48,0-.75-.97-.75-1.98-1.46-2.92-2.26-.91-.77-1.75-1.63-2.66-2.49-.04.05-.17.15-.22.28-2.31,6.44-.54,13.47,4.35,18.05,1.39,1.3,2.94,2.32,4.7,3.04,1.52.62,3.04,1.21,4.64,1.43.17.38-.1.49-.26.63-1.85,1.66-3.87,3.1-5.95,4.44-5.26,3.4-10.97,5.72-17.07,7.09-2.66.6-5.35.92-8.07,1.1-2.52.17-5.04.12-7.55-.08-4.44-.37-8.77-1.3-12.97-2.77-4.59-1.61-8.88-3.81-12.86-6.62-1.24-.88-2.42-1.84-3.61-2.78-.3-.24-.64-.47-.79-.94.47-.09.89-.16,1.31-.26,6.26-1.47,10.69-5.04,12.83-11.2,1.22-3.52,1.15-7.06,0-10.59-.08-.26-.21-.49-.35-.81-.92.93-1.74,1.85-2.66,2.66-.92.82-1.94,1.53-2.95,2.32,0,.59.04,1.23,0,1.87-.32,4.37-3.33,7.91-7.61,8.96-.86.21-1.72.35-2.61.36-1.2.02-2.4.03-3.59.11-.67.04-1.12-.2-1.52-.72-1.63-2.13-3.13-4.35-4.41-6.71-.55-1.02-1.06-2.06-1.58-3.1-.1-.2-.16-.43-.27-.74Zm61.73-26.57c-.5.19-.8.52-1.04.89-.37.57-.74,1.14-1.04,1.75-1.04,2.15-1.59,4.42-1.67,6.82-.02.64-.09,1.27-.19,1.9-.86,5.23-6.12,9.37-12.17,7.95-3.96-.93-6.95-4.25-7.53-8.26-.11-.75-.19-1.51-.26-2.26-.18-2-.6-3.94-1.42-5.79-.39-.89-.93-1.68-1.52-2.43-.19-.24-.39-.51-.77-.47-4.36,5.86-4.16,15.66,2.48,21.82,6.41,5.94,16.43,6.07,22.94-.12,6.85-6.51,6.3-16.47,2.17-21.8Zm-18.21,15.38c2.21-3.11,3.21-6.48,3.11-10.12-.14-4.9-2.04-9.08-5.73-12.36-6.89-6.1-17.36-5.53-23.59,1.4-1.99,2.21-3.28,4.8-3.92,7.71-.66,3.04-.48,6.04.5,8.98.5,1.51,1.14,2.96,2.21,4.21.49-.28.81-.63,1.12-1,1.11-1.34,1.65-2.91,1.7-4.64.04-1.48.18-2.96.52-4.4.53-2.23,1.26-4.39,2.82-6.14,2.62-2.94,5.91-4.04,9.73-3.21,3.74.81,6.16,3.2,7.41,6.79.65,1.86.98,3.79,1.13,5.75.06.76.11,1.52.21,2.27.25,1.91,1.16,3.44,2.78,4.77Zm9.17-.21c.48-.3.8-.65,1.09-1.03,1.04-1.34,1.55-2.87,1.58-4.55.06-2.91.64-5.72,1.95-8.33,1.63-3.27,4.25-5.25,7.92-5.66,3.62-.41,6.59.85,8.84,3.73,1.25,1.61,1.9,3.5,2.43,5.43.47,1.7.55,3.47.68,5.22.06.85.25,1.66.59,2.43.5,1.14,1.2,2.14,2.25,2.84,1.89-2.03,3.27-6.37,3.17-9.88-.14-4.54-1.76-8.48-4.97-11.74-6.18-6.25-16.42-6.83-23.27-.46-6.8,6.32-6.65,16.31-2.26,22.01Zm-7.96-22.34c3-5.17,2.86-14.8-4.61-20.7-6.58-5.2-16.22-4.83-22.37,1.46-3.06,3.13-4.61,6.95-4.82,11.31-.12,2.48.85,6.92,1.95,7.89.8-.76,1.56-1.57,2.41-2.28.88-.74,1.85-1.38,2.8-2.08-.03-.21-.06-.4-.1-.59-.35-1.62-.39-3.24.02-4.87,1.1-4.47,5.03-7.28,8.75-7.57,2.96-.23,5.57.56,7.72,2.56,2.74,2.55,3.82,5.73,3.13,9.45-.06.34-.1.69-.15,1.06,1.98,1.19,3.69,2.61,5.27,4.36Zm6.54.06c.89-.85,1.65-1.66,2.5-2.38.88-.74,1.84-1.38,2.81-2.11-.67-2.09-.62-4.18.07-6.24.7-2.12,1.96-3.87,3.82-5.08,3.48-2.27,7.16-2.52,10.74-.35,4.35,2.65,5.68,6.66,4.64,11.54.97.7,1.91,1.38,2.84,2.05.93.67,1.6,1.63,2.53,2.31,3.14-5.77,2.23-14.73-4.34-20.24-6.13-5.14-15.33-5.32-21.69.17-6.55,5.65-7.14,14.71-3.93,20.33Zm-13.24,33.62c-.13-.12-.2-.22-.3-.28-1.85-1.15-3.44-2.6-4.85-4.25-.12-.14-.28-.23-.44-.36-2.49,5.41-1.42,14.3,5.53,19.55,6.5,4.91,15.62,4.52,21.66-1.25,2.91-2.78,4.6-6.21,5.08-10.2.3-2.52.02-6.22-1.19-8.03-.84.85-1.64,1.74-2.53,2.53-.92.82-1.94,1.54-2.91,2.3.39,7.62-5.51,11.38-10.34,11.23-4.49-.14-10.11-3.82-9.71-11.23Z"/>
  <path class="cls-1" d="m281.3,108.55c.04-.32.13-.71.14-1.1.02-1.08.01-2.16.01-3.24,0-3.4.02-6.8,0-10.2,0-2.24-.09-4.47-.08-6.71.01-3.48.08-6.95.12-10.43.01-1.36,0-2.72,0-4.08,0-4.48,0-8.96,0-13.43,0-.6-.06-1.2-.09-1.79,0-.16-.04-.32-.03-.48.17-1.95.06-3.91,0-5.86-.08-2.95-.05-5.92.43-8.84.22-1.38.56-2.74.96-4.08,1.52-5.01,3.99-9.5,7.52-13.37,3.36-3.69,7.39-6.45,11.98-8.4,2.93-1.24,5.95-2.11,9.09-2.53,1.94-.26,3.9-.33,5.86-.26,2.93.09,5.81.53,8.61,1.4,2.91.91,5.68,2.16,8.26,3.78,2.45,1.53,4.69,3.34,6.62,5.5,2.39,2.66,4.44,5.54,5.95,8.81,1.08,2.34,1.88,4.77,2.41,7.27.59,2.78.89,5.6.75,8.45-.07,1.52-.37,3.01-.54,4.52-.21,1.93-.8,3.76-1.42,5.56-.78,2.27-1.83,4.43-3.14,6.45-.81,1.24-1.63,2.47-2.54,3.64-2.06,2.64-4.53,4.83-7.31,6.69-2.54,1.7-5.22,3.11-8.12,4.07-1.67.56-3.39.91-5.12,1.25-.63.12-1.25.26-1.87.41-1.81.44-3.29,1.43-4.49,2.83-1.43,1.67-2.45,3.55-2.89,5.72-.27,1.33-.53,2.67-.71,4.01-.17,1.23-.14,2.46.06,3.69.3,1.83.85,3.58,1.57,5.27.32.76.86,1.44,1.36,2.11.97,1.31,2.19,2.33,3.67,3.01,1.25.58,2.61.74,3.97.79.84.03,1.68-.01,2.52,0,4.6.06,9.19.14,13.79.17,3.76.02,7.52-.02,11.27-.03,2.04,0,4.08,0,6.12,0,1.05,0,1.26-.21,1.32-1.24,0-.16,0-.32,0-.48,0-4.12.03-8.24.03-12.36,0-3.52-.03-7.04-.02-10.55,0-3.72.03-7.43.03-11.15,0-8.36.01-16.72,0-25.08,0-3.79.59-7.47,1.82-11.06,1.13-3.31,2.67-6.41,4.75-9.24,2.68-3.66,5.99-6.64,9.82-9.04,3.74-2.34,7.82-3.79,12.15-4.57,3.53-.64,7.08-.65,10.63-.2,2.46.31,4.85.98,7.18,1.87,2.59.99,5.07,2.18,7.37,3.72,3.32,2.22,6.2,4.91,8.47,8.22,2.69,3.93,4.67,8.19,5.62,12.87.32,1.56.4,3.17.62,4.75.19,1.36.14,2.71.03,4.07-.23,2.99-.68,5.95-1.71,8.79-1.56,4.33-3.74,8.3-6.82,11.74-3.13,3.5-6.8,6.28-11.05,8.29-2.25,1.06-4.61,1.79-7.03,2.36-1.17.27-2.35.47-3.51.77-2.86.75-4.77,2.65-6.06,5.23-.14.29-.25.59-.4.87-.8,1.43-1.11,2.98-1.23,4.59-.09,1.24-.17,2.47-.1,3.71.11,1.82.47,3.54,1.3,5.19.51,1,1.07,1.96,1.68,2.89.89,1.37,2.07,2.43,3.48,3.23.73.41,1.47.8,2.24,1.13,1.27.54,2.64.65,4,.65,2.56.02,5.12-.02,7.68-.01,4.92.02,9.83.05,14.75.07.36,0,.72.02,1.07.08.56.1.86.41.88.97.03,1.08.05,2.16,0,3.24-.04.9-.33,1.15-1.3,1.21-.88.05-1.76.06-2.64.06-2.36,0-4.72-.01-7.08-.02-4-.02-8-.06-12-.08-.92,0-1.84.08-2.75,0-1.23-.11-2.48-.05-3.66-.51-.15-.06-.3-.13-.46-.15-1.11-.1-2.04-.65-2.98-1.2-.86-.51-1.75-.97-2.58-1.51-.53-.34-1.01-.78-1.47-1.21-.55-.52-1.04-1.11-1.59-1.63-.62-.59-1.09-1.27-1.48-2.02-.35-.67-.76-1.31-1.12-1.98-.21-.39-.4-.79-.54-1.2-.32-.99-.63-1.98-.89-2.99-.49-1.95-.66-3.94-.5-5.95.05-.64.1-1.28.13-1.91.1-2.26.57-4.45,1.45-6.51.77-1.81,1.83-3.46,3.2-4.89.52-.55,1.05-1.1,1.6-1.62,1.64-1.53,3.57-2.55,5.75-3.07,1.44-.34,2.9-.59,4.33-.96,6.58-1.71,12-5.19,16.03-10.7,2.53-3.46,4.16-7.36,5.06-11.55.31-1.45.46-2.92.51-4.4.06-1.76,0-3.51-.26-5.26-.29-1.98-.82-3.91-1.5-5.79-1.05-2.93-2.65-5.54-4.57-7.97-1.1-1.39-2.36-2.62-3.72-3.73-3.07-2.5-6.51-4.36-10.34-5.4-3.94-1.06-7.93-1.35-12-.74-4.22.64-8.09,2.13-11.66,4.45-3.51,2.29-6.32,5.24-8.53,8.79-1.82,2.92-3.06,6.06-3.68,9.44-.32,1.77-.54,3.56-.56,5.36-.03,2.68-.05,5.36-.05,8.04,0,4.52.04,9.04.04,13.55,0,5.8-.05,11.6-.06,17.39-.01,5.32,0,10.64,0,15.95,0,3.28,0,6.56,0,9.84,0,.28,0,.56-.03.84-.1.8-.62,1.28-1.43,1.33-.28.02-.56,0-.84,0-2.4.01-4.8.04-7.2.03-3.56-.02-7.12-.08-10.67-.11-1.36-.01-2.72,0-4.07,0-2.04,0-4.08-.02-6.11-.03-1.8-.01-3.6-.03-5.39-.05-1.96-.02-3.92-.03-5.87-.09-1.81-.05-3.58-.36-5.21-1.21-.32-.17-.65-.31-.99-.44-1.7-.62-3.04-1.71-4.23-3.05-.97-1.08-1.79-2.25-2.5-3.5-1.96-3.49-3.12-7.16-2.69-11.23.12-1.11.09-2.23.17-3.35.04-.59.16-1.19.28-1.77.1-.51.24-1.01.39-1.51.17-.57.37-1.14.58-1.7.21-.56.43-1.12.68-1.66.22-.47.45-.93.73-1.36.71-1.11,1.47-2.18,2.36-3.17,1.83-2.05,4.03-3.51,6.67-4.28.96-.28,1.93-.5,2.91-.7,3.23-.66,6.33-1.69,9.2-3.34,3.01-1.74,5.6-3.97,7.71-6.75.77-1.02,1.56-2.03,2.23-3.12.69-1.12,1.3-2.3,1.83-3.5.87-1.98,1.52-4.04,1.92-6.17.25-1.33.4-2.7.41-4.05.01-1.47-.05-2.95-.2-4.42-.31-2.9-1.09-5.64-2.24-8.29-.89-2.06-2.08-3.95-3.43-5.75-2.52-3.36-5.7-5.92-9.42-7.81-3.16-1.61-6.53-2.56-10.06-2.95-3.05-.34-6.04-.06-9.03.61-2.12.47-4.16,1.16-6.1,2.1-1.15.56-2.27,1.18-3.34,1.88-3.75,2.44-6.72,5.63-8.97,9.5-1.73,2.97-2.84,6.16-3.51,9.51-.26,1.32-.33,2.7-.36,4.05-.06,2.36-.01,4.72-.02,7.07,0,2.24-.03,4.48-.03,6.72,0,1.56.04,3.12.04,4.68,0,1.92-.03,3.84-.03,5.76,0,1.56-.09,3.11-.06,4.67.04,2-.05,3.99-.07,5.99-.01,1.28,0,2.56,0,3.83.01,1.32.05,2.63.05,3.95,0,1.83-.05,3.66-.04,5.5,0,2.36.06,4.72.07,7.07.02,3.48.03,6.96.04,10.44,0,.24,0,.48-.03.72-.07.54-.29.79-.85.83-1.03.07-2.07.1-3.11.11-.88,0-1.76-.04-2.63-.05-1.84-.02-3.68-.06-5.51-.05-3.36.01-6.71.07-10.07.08-3.44.01-6.87,0-10.31-.03-2.92-.03-5.84-.05-8.75-.17-3.21-.13-6.37-.59-9.37-1.83-4.16-1.71-7.65-4.29-10.35-7.9-1.97-2.63-3.33-5.55-4.1-8.73-.34-1.4-.56-2.82-.66-4.26-.16-2.48-.24-4.95-.2-7.43.04-2.73.28-5.43,1.42-7.97.23-.5.54-.97.81-1.45.1-.17.23-.33.3-.52.48-1.27,1.38-2.24,2.34-3.15,2.53-2.39,5.58-3.65,9.03-4.03,2.75-.3,5.51-.2,8.27-.24,3.84-.06,7.68-.02,11.52,0,3.12,0,6.24.04,9.36.05.52,0,1.04,0,1.56-.06.64-.08,1.1-.43,1.29-1.09.18-.62-.05-1.25-.65-1.5-.36-.15-.77-.22-1.16-.23-1.12-.04-2.24-.03-3.36-.03-3.48,0-6.96.03-10.44.02-3.24,0-6.48-.06-9.72-.08-1,0-2,.03-3,.03-1.8,0-3.6-.14-5.36-.53-4.58-1.02-7.9-3.7-10.09-7.8-1.19-2.22-1.76-4.63-1.83-7.14-.08-2.84-.14-5.68-.07-8.52.11-4.2,1-8.23,3.01-11.98,1.49-2.79,3.43-5.2,5.91-7.17,2.79-2.22,5.86-3.87,9.36-4.67,1.48-.34,2.97-.58,4.5-.67,3.84-.24,7.68-.11,11.51-.15,2.72-.03,5.44,0,8.16.02,4.04.02,8.08.05,12.11.07,1.32,0,2.64.02,3.96.04.4,0,.8.03,1.19.09.43.07.74.32.81.77.2,1.19.19,2.39.11,3.59-.03.56-.36.84-.95.89-.76.07-1.52.12-2.27.13-4.08.04-8.16.07-12.24.08-4.08.02-8.16.01-12.23.03-2.44.01-4.88,0-7.32.08-2.2.07-4.39.3-6.52.87-2.71.72-5.09,2.05-7.17,3.95-1.37,1.25-2.56,2.62-3.51,4.22-.95,1.61-1.5,3.34-1.94,5.13-.43,1.76-.5,3.56-.51,5.36-.02,2.64-.05,5.28.03,7.91.08,2.51.93,4.77,2.66,6.64,1.38,1.5,3.1,2.35,5.07,2.77.78.17,1.57.25,2.38.25,5.84,0,11.68.02,17.51.04,3.16,0,6.31.01,9.47.05.88.01,1.76.09,2.62.23,2.2.35,3.82,1.57,4.93,3.46,2.16,3.67.48,8.46-3.56,10.04-1.1.43-2.26.51-3.42.51-3.15,0-6.31-.02-9.46-.03-1.16,0-2.32.04-3.48.03-3-.02-5.99-.08-8.99-.08-2.24,0-4.48,0-6.71.17-3.61.26-6.38,1.96-8.07,5.21-.77,1.47-1.15,3.07-1.16,4.73-.01,2.64-.06,5.28.05,7.92.12,2.98.71,5.87,2.12,8.54,1.4,2.67,3.39,4.82,5.87,6.54,2.18,1.51,4.62,2.31,7.21,2.78,2.38.43,4.77.48,7.17.5,2.32.02,4.64.01,6.96.02,2.8.01,5.6.03,8.4.05,3,.02,6,.04,8.99.05,2,0,3.99-.02,5.99-.04.39,0,.81.07,1.25-.25Z"/>
  <path class="cls-1" d="m145.77,64.81c0-2.92,0-5.84,0-8.75,0-1.51-.03-3.03-.02-4.54,0-1.55.04-3.11.07-4.66.03-1.56.08-3.12.08-4.68.02-5.6.02-11.2.02-16.8,0-2.52,0-5.04.03-7.56,0-.6.1-1.19.16-1.79.04-.42.31-.63.72-.67.64-.06,1.27-.15,1.91-.15,2.72-.02,5.44,0,8.15-.02,1.84,0,3.68-.05,5.52-.06,1.72,0,3.44.01,5.16.01,4.08,0,8.16.02,12.24,0,3.24-.02,6.48-.13,9.71-.15,1.76-.01,3.51.22,5.22.63,4.05.98,7.6,2.89,10.71,5.63,2.28,2.01,4.04,4.43,5.38,7.14,1.25,2.53,1.97,5.2,2.32,8.02.57,4.67-.17,9.08-2.21,13.28-1.45,2.98-3.42,5.56-5.91,7.77-2.59,2.31-5.58,3.85-8.84,4.9-2.41.77-4.91,1.07-7.45,1.05-2.88-.02-5.76-.03-8.64-.02-.55,0-1.12.08-1.65.22-.7.18-1.06.75-1.02,1.44.04.57.5,1.09,1.18,1.18.71.09,1.43.11,2.15.11,2.08,0,4.15,0,6.23-.02,1.48-.01,2.96-.03,4.44-.08,4.02-.15,7.89.51,11.55,2.21,3.54,1.64,6.51,4.03,8.93,7.09,2.72,3.45,4.27,7.39,4.94,11.68.44,2.83.22,5.64-.46,8.44-.69,2.79-1.84,5.36-3.43,7.74-1.16,1.73-2.51,3.31-4.09,4.69-1.36,1.19-2.79,2.27-4.38,3.14-2.19,1.19-4.49,2.07-6.95,2.54-1.98.37-3.96.47-5.97.46-8.64-.02-17.28,0-25.91-.02-3.88-.01-7.75-.1-11.63-.14-1.48-.02-2.95.01-4.43,0-.92,0-1.84-.03-2.75-.09-.83-.05-1.13-.36-1.18-1.2-.05-.8-.06-1.6-.05-2.4.02-3.48.06-6.96.07-10.44,0-1.96-.04-3.92-.04-5.88,0-2.24,0-4.48.02-6.72.01-3.8.02-7.6.03-11.4.01-3.12.04-6.23.06-9.35,0-.6,0-1.2,0-1.8,0,0,0,0,.01,0Zm26.26-44.08s0,0,0-.01c-.24,0-.48,0-.72,0-1.8.04-3.6.1-5.39.1-1.84,0-3.67-.08-5.51-.1-.8,0-1.6.06-2.39.06-.92,0-1.84-.07-2.76-.06-.84,0-1.68.05-2.51.12-.61.05-.84.3-.91.91-.02.16,0,.32-.01.48-.04,2.12-.11,4.23-.12,6.35-.02,4.64,0,9.27-.02,13.91-.01,4.24-.05,8.48-.07,12.71,0,.92.05,1.84.04,2.76-.02,3.4-.07,6.79-.08,10.19-.01,3.56,0,7.12,0,10.68,0,1.16-.05,2.32-.04,3.47.02,2.47.1,4.95.1,7.42,0,1.96-.09,3.91-.12,5.87-.04,3-.06,5.99-.06,8.99,0,.92.09,1.83.12,2.75.04.96.22,1.15,1.22,1.22.08,0,.16.01.24.01,2.15,0,4.31,0,6.46-.01,1.16,0,2.32-.04,3.48-.02,3.52.05,7.03.16,10.55.17,3.08.01,6.16-.07,9.23-.09,2.92-.02,5.84-.08,8.75-.02,1.93.04,3.84-.13,5.69-.61,3.36-.86,6.29-2.5,8.69-5.05,3.45-3.67,5.28-8.02,5.13-13.04-.17-5.59-2.43-10.28-6.79-13.87-3.2-2.64-6.91-3.96-11.05-3.99-3.16-.03-6.32.01-9.47.01-1.68,0-3.36-.02-5.04-.05-1.22-.02-2.35-.39-3.43-.96-3.98-2.1-5.19-8.03-1.28-11.49,1.62-1.43,3.56-1.9,5.66-1.9,3.28,0,6.55.03,9.83,0,.91,0,1.83-.16,2.73-.29,3.04-.46,5.73-1.74,8.12-3.62,3.57-2.8,5.8-6.49,6.72-10.9.89-4.28.31-8.43-1.7-12.34-2.72-5.32-8.79-9.93-16.18-9.78-2.63.05-5.26.06-7.9.03-2.08-.02-4.16,0-6.24.01-1,0-1.99,0-2.99,0Z"/>
  <path class="cls-1" d="m613.39,64.99c.09-1.46.1-3.26.32-5.05.54-4.45,1.52-8.81,3.16-13.01.9-2.31,1.93-4.57,3.18-6.71,2.02-3.46,4.32-6.71,7.09-9.63,3.61-3.79,7.68-7,12.2-9.62,3.08-1.78,6.33-3.21,9.75-4.24,2.3-.69,4.59-1.4,6.97-1.72,1.9-.26,3.81-.44,5.72-.63.91-.09,1.84-.18,2.75-.16,1.8.05,3.59.15,5.39.27,4.38.29,8.61,1.31,12.71,2.82,3.6,1.33,7.07,2.96,10.31,5.06,2.83,1.83,5.49,3.85,7.9,6.22,2.03,1.99,3.86,4.15,5.54,6.45,1.82,2.49,3.39,5.14,4.73,7.91,1.35,2.77,2.41,5.67,3.21,8.64.66,2.46,1.21,4.97,1.39,7.53.09,1.31.31,2.62.38,3.93.07,1.28.07,2.56,0,3.83-.07,1.48-.21,2.95-.37,4.42-.4,3.59-1.24,7.08-2.44,10.48-1.02,2.91-2.3,5.71-3.81,8.39-2.34,4.13-5.21,7.84-8.58,11.19-4.37,4.34-9.41,7.64-14.97,10.22-3.2,1.49-6.56,2.49-9.98,3.34-1.67.41-3.37.57-5.07.82-1.7.25-3.41.37-5.13.43-3.09.1-6.16-.05-9.2-.53-5.6-.9-10.94-2.62-15.98-5.26-3.89-2.04-7.43-4.55-10.66-7.5-1.62-1.48-3.16-3.06-4.51-4.81-.49-.63-1.03-1.23-1.52-1.85-3.78-4.8-6.45-10.18-8.25-16-.77-2.48-1.31-5.02-1.69-7.6-.36-2.42-.41-4.85-.54-7.63Zm53.51-45.07c-1.92.08-3.83.14-5.75.24-1.04.06-2.07.14-3.1.29-3.49.52-6.88,1.44-10.15,2.78-6.44,2.66-12.1,6.46-16.82,11.63-2.94,3.21-5.29,6.81-7.23,10.69-1.2,2.4-2.11,4.92-2.88,7.48-.82,2.73-1.32,5.51-1.58,8.34-.24,2.6-.19,5.19-.02,7.78.12,1.84.36,3.66.74,5.46,1.02,4.84,2.68,9.44,5.24,13.7,2.09,3.48,4.5,6.7,7.36,9.58,2.04,2.05,4.34,3.78,6.74,5.38,3.96,2.63,8.19,4.66,12.8,5.86,2.36.61,4.74,1.09,7.17,1.38,2.51.3,5.02.47,7.54.29,1.43-.1,2.86-.3,4.28-.52,1.42-.22,2.85-.45,4.24-.8,5.09-1.26,9.79-3.42,14.19-6.27,3.1-2.01,5.86-4.44,8.4-7.12,1.57-1.66,3.01-3.43,4.3-5.31,1.47-2.14,2.68-4.44,3.78-6.8,1.52-3.24,2.55-6.63,3.33-10.1.62-2.75.71-5.54.85-8.33.09-1.88-.14-3.75-.32-5.62-.11-1.16-.36-2.28-.56-3.42-.44-2.53-1.16-4.98-2-7.39-1.28-3.68-3.16-7.08-5.38-10.27-3.13-4.51-7-8.3-11.62-11.31-3.87-2.52-7.99-4.51-12.46-5.76-3.64-1.01-7.31-1.72-11.09-1.88Z"/>
  <path class="cls-1" d="m529.82,64.74c.02,3.81-.38,7.57-1.28,11.28-1.05,4.34-2.6,8.48-4.64,12.43-1.27,2.46-2.78,4.77-4.45,6.97-3.09,4.07-6.7,7.62-10.82,10.64-1.87,1.37-3.86,2.56-5.91,3.65-3.94,2.09-8.09,3.64-12.43,4.63-3.82.87-7.69,1.51-11.63,1.4-1.52-.04-3.05.02-4.55-.12-1.87-.17-3.73-.43-5.57-.78-5.1-.96-9.94-2.68-14.55-5.07-2.49-1.29-4.79-2.88-7.04-4.56-2.83-2.12-5.37-4.54-7.66-7.23-2.18-2.56-4.05-5.35-5.7-8.28-1.85-3.29-3.34-6.73-4.42-10.34-1.16-3.88-1.8-7.86-1.97-11.91-.09-2.04-.08-4.07,0-6.11.04-.84.18-1.67.26-2.5.37-3.96,1.36-7.79,2.7-11.52,1.17-3.28,2.72-6.39,4.51-9.38,1.79-3,3.9-5.75,6.34-8.25,2.01-2.07,4.13-3.99,6.5-5.66,2.36-1.66,4.75-3.25,7.29-4.6,1.38-.73,2.78-1.41,4.26-1.92,1.55-.54,3.07-1.14,4.63-1.63,2.6-.82,5.26-1.31,7.95-1.74,2.82-.45,5.65-.44,8.49-.37,2.24.06,4.47.26,6.68.61,2.37.37,4.69.95,6.98,1.67,3.83,1.21,7.49,2.79,10.94,4.84,4.49,2.67,8.59,5.86,12.06,9.78,2.31,2.61,4.37,5.41,6.06,8.47.89,1.61,1.74,3.23,2.52,4.9,1.5,3.23,2.57,6.61,3.35,10.1.78,3.49,1.1,7.02,1.1,10.59Zm-96.88-.04c-.03,2.74.16,5.12.48,7.5.54,3.95,1.69,7.72,3.33,11.34,2.16,4.78,5.06,9.07,8.68,12.86,3,3.15,6.37,5.83,10.17,7.95,5.47,3.04,11.32,4.97,17.55,5.71,2.23.26,4.46.4,6.7.27,3.6-.2,7.16-.69,10.64-1.68,2.89-.82,5.71-1.8,8.4-3.15,2.7-1.35,5.2-2.99,7.55-4.86,1.66-1.32,3.25-2.72,4.7-4.27,1.01-1.08,1.95-2.22,2.89-3.36,3.65-4.4,6.06-9.47,7.94-14.83.6-1.7.92-3.47,1.29-5.23.32-1.49.55-2.99.62-4.51.16-3.52.17-7.03-.41-10.52-.47-2.84-1.09-5.64-2.08-8.36-.81-2.22-1.8-4.35-2.92-6.43-2.06-3.78-4.53-7.24-7.59-10.28-3.63-3.61-7.69-6.61-12.31-8.83-4.39-2.11-8.95-3.61-13.81-4.2-4.55-.55-9.09-.59-13.62.1-2.85.44-5.64,1.16-8.35,2.13-3.86,1.39-7.44,3.31-10.78,5.69-3.81,2.71-7.06,6.01-9.91,9.69-1.94,2.5-3.57,5.21-4.85,8.11-.8,1.83-1.54,3.68-2.12,5.59-.39,1.3-.86,2.58-1.15,3.9-.74,3.28-1.15,6.61-1.03,9.65Zm17.74,40.98s-.03-.06-.04-.09c-.02.02-.06.04-.06.06,0,.03.02.06.04.08.02-.02.04-.04.07-.06Z"/>
  <path class="cls-1" d="m584.59,116.43c-2.56,0-5.11-.23-7.63-.66-2.69-.46-5.32-1.11-7.9-1.99-2.57-.88-5.07-1.96-7.48-3.22-3.13-1.63-6.08-3.53-8.8-5.78-3.1-2.56-5.84-5.45-8.24-8.68-1.84-2.48-3.55-5.03-4.92-7.8-1.63-3.3-3.02-6.7-3.81-10.32-.33-1.48-.67-2.96-.9-4.46-.4-2.61-.55-5.24-.59-7.88-.02-1.64.02-3.28.18-4.91.16-1.75.37-3.5.77-5.21.39-1.67.83-3.33,1.3-4.98,1.23-4.29,3.13-8.28,5.45-12.09,1.51-2.47,3.23-4.76,5.12-6.94,1.89-2.18,4.01-4.13,6.27-5.92,5.39-4.26,11.34-7.44,17.96-9.36,4.52-1.31,9.13-2,13.83-2.07,2.76-.05,5.51.12,8.24.58,2.92.49,5.81,1.09,8.63,2.01,1.14.37,2.26.79,3.37,1.25,2.92,1.21,5.76,2.6,8.39,4.35,1.43.95,2.76,2.05,4.13,3.09.1.07.18.16.26.25.31.34.33.61.05.95-.74.89-1.48,1.78-2.24,2.66-.5.58-.93.66-1.57.26-.37-.23-.72-.5-1.07-.77-3.65-2.71-7.63-4.82-11.89-6.41-1.91-.71-3.87-1.27-5.88-1.66-2.12-.41-4.24-.79-6.4-.95-1.8-.13-3.59-.06-5.39,0-.16,0-.32.05-.48.05-3.63.07-7.15.79-10.6,1.84-2.06.63-4.07,1.41-6.04,2.3-1.71.78-3.38,1.63-4.97,2.65-3.14,2.01-6.03,4.32-8.65,6.99-2.88,2.94-5.28,6.21-7.26,9.79-1.33,2.41-2.46,4.93-3.32,7.56-.8,2.43-1.5,4.89-1.84,7.43-.26,1.94-.44,3.89-.52,5.84-.09,2.48-.01,4.96.36,7.42.53,3.52,1.31,6.98,2.6,10.32,1.29,3.34,2.99,6.45,5.02,9.38,3.03,4.38,6.7,8.14,11.06,11.21,3.45,2.43,7.17,4.33,11.14,5.78,3.06,1.12,6.21,1.79,9.41,2.26,3.34.49,6.7.36,10.05.17.4-.02.79-.1,1.19-.15,6.11-.88,11.9-2.72,17.27-5.83,1.49-.87,2.86-1.9,4.31-2.83.2-.13.39-.29.58-.43,1.18-.86,1.41-.83,2.38.27.66.75,1.35,1.47,2.01,2.23.4.45.39.75-.07,1.12-.81.66-1.63,1.29-2.47,1.9-3.02,2.2-6.29,3.96-9.73,5.4-3.55,1.48-7.22,2.55-11.01,3.24-3.2.58-6.43.74-9.67.71Z"/>
  <path class="cls-1" d="m660.43,152.36c.63-.79,2.68-2.55,4.11-3.55.21.13.45.25.67.41,1.65,1.17,3.03,2.6,4.11,4.31.15.23.32.45.49.68.02.03.07.03.19.08.31-.31.64-.64.99-.97,1.63-1.56,3.45-2.85,5.56-3.68,2.75-1.08,5.53-1.14,8.33-.21,1.84.61,3.34,1.69,4.41,3.33.13.19.27.37.46.63.41-.34.77-.64,1.13-.94,1.78-1.46,3.71-2.64,5.95-3.25,2.6-.7,5.16-.53,7.63.5,2.76,1.15,4.37,3.29,4.95,6.19.19.93.27,1.9.27,2.86.02,6.28.01,12.55,0,18.83,0,.35-.03.71-.05,1.1-.22.07-.4.18-.58.18-1.52.01-3.04,0-4.56,0-.15,0-.3-.08-.46-.12-.18-.45-.11-.9-.11-1.33,0-6,0-11.99,0-17.99,0-.8-.02-1.59-.23-2.38-.47-1.81-1.6-2.89-3.44-3.24-2-.38-3.81.09-5.47,1.2-1.56,1.04-2.74,2.44-3.73,4.01-.2.31-.29.65-.28,1.02.01.28,0,.56,0,.84,0,5.48,0,10.96,0,16.43,0,.47.07.95-.13,1.44-.6.23-1.2.11-1.79.13-.64.02-1.28.02-1.92,0-.59-.02-1.19.1-1.75-.12-.26-.48-.16-.97-.16-1.44,0-5.88,0-11.76,0-17.63,0-.6,0-1.2-.07-1.8-.05-.47-.15-.95-.31-1.4-.52-1.43-1.55-2.3-3.02-2.63-1.62-.37-3.19-.19-4.67.55-2.11,1.05-3.62,2.73-4.82,4.71-.12.19-.16.45-.19.68-.03.32-.01.64-.01.96,0,5.52,0,11.04,0,16.55,0,.47.11.96-.17,1.4-.82.21-3.8.26-5.42.09-.05-.2-.15-.42-.15-.64-.02-.84-.01-1.68-.01-2.52,0-4.12,0-8.24,0-12.35,0-.88-.04-1.76-.11-2.63-.18-2.23-1.04-4.18-2.65-5.75-.71-.7-1.51-1.31-2.26-1.95-.21-.18-.42-.35-.7-.57Z"/>
  <path class="cls-1" d="m235.17,174.3c-1.41,1.93-2.87,3.88-4.98,5.17-.94-.53-3.59-2.75-4.18-3.51.19-.18.37-.38.57-.54.68-.56,1.4-1.07,2.04-1.67,1.88-1.79,2.92-3.97,3-6.59.02-.6.05-1.2.05-1.8,0-9.64,0-19.28,0-28.92,0-.47-.11-.96.16-1.39.89-.2,4.25-.22,5.43-.02.05.19.13.41.15.63.03.32.01.64.01.96,0,4.8,0,9.6,0,14.4v1.28c.34.25.49-.02.65-.16,1.23-1.04,2.58-1.89,4.08-2.49,1.89-.76,3.86-1.01,5.88-.83,3.28.3,6.22,1.42,8.69,3.65,2.27,2.04,3.72,4.58,4.43,7.53.98,4.07.64,8.04-1.33,11.77-2.29,4.33-5.93,6.8-10.76,7.53-3.22.49-6.29.05-9.2-1.44-1.54-.79-2.91-1.82-4.08-3.11-.13-.15-.28-.28-.43-.42-.02-.02-.07-.02-.2-.04Zm11.48-20.78c-.63.07-1.27.1-1.9.22-2.41.49-4.23,1.87-5.48,3.94-2.36,3.93-2.47,8.01-.46,12.12.94,1.92,2.39,3.38,4.39,4.24,3.18,1.38,8.17,1.07,10.95-3.75.87-1.51,1.38-3.13,1.55-4.87.29-2.97-.32-5.73-2.03-8.19-1.69-2.42-4.02-3.69-7.02-3.72Z"/>
  <path class="cls-1" d="m117.09,148.79c2.75.78,4.5,1.44,5.15,1.93.01.04.03.08.04.11,0,.04-.01.08-.03.11-.02.08-.05.15-.08.23-4.12,9.01-8.25,18.02-12.37,27.04-.08.18-.18.35-.3.56-.94.18-1.88.07-2.89.06-2.36-5.41-4.71-10.79-7.11-16.28-.71,1.08-1.05,2.18-1.53,3.22-.5,1.09-.96,2.2-1.44,3.29-.46,1.06-.93,2.12-1.39,3.19-.48,1.1-.96,2.2-1.44,3.3-.46,1.06-.93,2.12-1.4,3.2-.97.19-1.92.11-2.94.06-4.27-9.33-8.54-18.66-12.84-28.05.23-.16.4-.35.61-.42,1.5-.53,3.02-1.04,4.51-1.56.44.29.52.75.69,1.14,2.63,6,5.26,12.01,7.89,18.01.16.36.34.71.58,1.22.2-.45.35-.75.47-1.06,2.14-5.56,4.28-11.11,6.42-16.67.17-.45.36-.89.55-1.36h2.31c.34.35.44.83.61,1.27,2.12,5.48,4.22,10.96,6.33,16.45.16.4.32.81.5,1.25.4-.23.46-.59.59-.9,2.66-6.08,5.32-12.15,7.98-18.23.16-.36.33-.71.52-1.12Z"/>
  <path class="cls-1" d="m47.92,169.26c3.08-6.97,5.99-13.71,8.96-20.44,1,.15,1.84.53,2.69.84.85.31,1.78.44,2.5.97.03.1.04.14.04.18,0,.04,0,.08-.01.12-.07.19-.14.37-.22.56-4.16,9.08-8.32,18.16-12.5,27.27-.96.2-1.91.11-2.92.05-1.23-2.69-2.37-5.41-3.56-8.11-1.17-2.66-2.32-5.34-3.54-8.07-.34.27-.42.56-.54.83-2.05,4.69-4.09,9.38-6.14,14.06-.18.4-.36.8-.54,1.23-.96.22-1.91.08-2.91.1-2.18-4.71-4.31-9.4-6.46-14.08-2.13-4.65-4.26-9.29-6.39-13.96.16-.15.25-.31.38-.35,1.57-.57,3.15-1.12,4.74-1.68.4.34.5.79.67,1.17,2.3,5.23,4.58,10.47,6.88,15.7.5,1.13,1,2.26,1.56,3.53.69-1.33,1.08-2.63,1.58-3.88.5-1.26.98-2.54,1.47-3.8.49-1.27.98-2.54,1.46-3.8.49-1.27.97-2.54,1.46-3.8.49-1.26.98-2.52,1.48-3.81h2.3c.4.34.48.84.64,1.27,2.1,5.44,4.19,10.89,6.28,16.33.17.45.36.88.64,1.57Z"/>
  <path class="cls-1" d="m136.83,150.68c.7-.44,3.39-1.42,5.07-1.84.35.27.44.72.62,1.11,2.65,6.04,5.29,12.08,7.94,18.12.14.31.18.69.62.93.89-2.08,1.63-4.18,2.44-6.25.84-2.12,1.64-4.25,2.45-6.38.8-2.09,1.61-4.17,2.41-6.26.81-.16,1.57-.05,2.27-.08.42.34.48.8.64,1.2,2.16,5.59,4.31,11.18,6.46,16.77.13.33.28.64.45,1.04.34-.24.41-.55.52-.82,2.65-6.04,5.29-12.08,7.93-18.12.19-.43.34-.89.68-1.33,1.71.57,3.4,1.12,4.99,1.75.22.55-.09.88-.24,1.23-1.2,2.66-2.42,5.31-3.64,7.96-2.75,5.99-5.49,11.99-8.24,17.98-.17.36-.34.72-.52,1.09-.94.16-1.85.05-2.7.07-.44-.33-.53-.78-.7-1.18-2-4.58-3.99-9.16-5.99-13.73-.17-.4-.36-.8-.54-1.18-.46.07-.48.46-.6.72-1.38,3.15-2.75,6.3-4.12,9.45-.72,1.65-1.44,3.3-2.16,4.94-.13.29-.27.58-.43.92-.95.14-1.89.06-2.9.04-4.25-9.29-8.48-18.55-12.71-27.82-.04-.1,0-.23,0-.34Z"/>
  <path class="cls-1" d="m286.29,167.54c.95,3.46,2.86,5.91,6.22,6.88,4.01,1.16,7.5.18,10.29-3.07.85.23,1.42.88,2.09,1.35.64.45,1.33.86,1.88,1.49-.19.5-.55.83-.89,1.16-1.57,1.53-3.38,2.68-5.49,3.32-3.12.95-6.28,1.14-9.47.39-3.91-.92-6.89-3.15-8.82-6.65-2.43-4.4-2.87-9.06-1.11-13.77,1.97-5.29,5.9-8.43,11.4-9.56,2.75-.57,5.49-.36,8.18.45,1.23.37,2.38.93,3.43,1.68.86.61,1.59,1.34,2.15,2.23,1.45,2.31,1.49,4.67.22,7.05-.73,1.37-1.85,2.39-3.13,3.25-1.78,1.2-3.74,1.99-5.79,2.55-2.32.64-4.68,1.01-7.1,1.06-1.12.02-2.24.06-3.35.1-.2,0-.39.05-.72.09Zm-.37-4.69c.23.06.35.12.46.12,2.36.02,4.72.07,7.06-.28,1.5-.22,2.98-.54,4.38-1.18.88-.4,1.68-.93,2.32-1.66,1.66-1.91,1.25-4.46-.93-5.72-.38-.22-.79-.4-1.21-.52-3.05-.83-5.87-.34-8.34,1.66-2.37,1.92-3.43,4.53-3.73,7.59Z"/>
  <path class="cls-1" d="m506.17,148.83c2.51-.03,4.92.46,7.16,1.62,2.99,1.55,5.18,3.89,6.48,6.97,2.07,4.88,1.96,9.76-.51,14.46-2.21,4.2-5.78,6.61-10.45,7.4-2.65.45-5.27.28-7.81-.59-4.45-1.52-7.45-4.58-8.98-9-1.47-4.25-1.32-8.5.62-12.6,2.18-4.59,5.84-7.28,10.86-8.09.39-.06.79-.14,1.19-.16.48-.03.96,0,1.44,0Zm9.14,15.06c-.07-2.59-.81-5.23-2.74-7.45-2.2-2.53-5.02-3.29-8.24-2.7-2.33.42-4.13,1.76-5.34,3.74-2.62,4.29-2.65,8.69-.18,13.07.88,1.56,2.19,2.74,3.86,3.47,4.15,1.84,8.89.19,11.1-3.87,1.01-1.86,1.51-3.86,1.54-6.27Z"/>
  <path class="cls-1" d="m398.82,164.53c0-3.59.79-6.57,2.55-9.25,1.94-2.96,4.62-4.94,8.03-5.89,3.2-.9,6.41-.85,9.56.2,4.1,1.37,7.01,4.11,8.65,8.09,1.89,4.59,1.82,9.23-.37,13.7-2.23,4.57-5.96,7.17-10.98,7.93-2.25.34-4.48.25-6.65-.37-5.38-1.52-8.71-5.11-10.23-10.43-.41-1.43-.57-2.9-.56-3.98Zm24.13-.29c.03-2.65-.64-5-2.13-7.09-2.06-2.88-5.24-4.17-8.96-3.37-2.55.54-4.35,2.11-5.59,4.34-1.45,2.61-1.87,5.42-1.33,8.35.32,1.75.97,3.38,2.05,4.81,1.61,2.13,3.74,3.34,6.42,3.45,3.26.14,5.82-1.18,7.62-3.9,1.34-2.02,1.96-4.26,1.92-6.59Z"/>
  <path class="cls-1" d="m629.12,148.72c2.48.1,4.85.58,7.05,1.73,3.26,1.7,5.54,4.31,6.8,7.74,1.68,4.57,1.52,9.11-.71,13.47-2.25,4.4-5.92,6.89-10.79,7.66-2.29.36-4.55.24-6.77-.38-4.15-1.16-7.27-3.66-9.09-7.58-2.45-5.28-2.3-10.56.65-15.62,2.17-3.74,5.53-5.9,9.77-6.68,1.02-.19,2.06-.23,3.09-.35Zm-9.22,14.71c0,3.02.55,5.16,1.75,7.11.83,1.35,1.92,2.44,3.32,3.21,3.07,1.68,8.38,1.71,11.31-3.09,2.57-4.2,2.58-8.59.12-12.85-1.64-2.83-4.18-4.29-7.54-4.24-2.61.04-4.73,1.04-6.38,3.03-1.82,2.18-2.55,4.75-2.58,6.82Z"/>
  <path class="cls-1" d="m596.85,174.27c-.48.74-1.09,1.26-1.69,1.78-2.05,1.78-4.45,2.8-7.12,3.21-1.86.28-3.73.36-5.61.08-4.96-.75-8.61-3.36-10.74-7.87-2.38-5.04-2.3-10.17.26-15.13,2.13-4.14,5.6-6.59,10.22-7.31,3.39-.53,6.69-.19,9.86,1.21,1.63.72,3.02,1.79,4.26,3.06.21.22.38.49.56.72-.59.7-2.55,2.2-4.07,3.12-.17-.18-.37-.37-.54-.57-1.76-2.02-3.97-3.02-6.66-2.98-1.01.01-2,.07-2.96.36-2.26.67-3.99,2.05-5.09,4.11-2.09,3.9-2.13,7.92-.19,11.86,1.55,3.13,4.23,4.69,7.72,4.84,2.56.11,4.81-.62,6.66-2.44.36-.36.69-.75,1.03-1.12,1.18.67,3.47,2.38,4.12,3.09Z"/>
  <path class="cls-1" d="m473.98,154.06c-.64.7-2.97,2.44-4.09,3.05-.23-.25-.46-.51-.7-.77-1.66-1.8-3.71-2.72-6.16-2.77-1.33-.03-2.64.09-3.89.56-2.38.9-4.01,2.6-4.99,4.91-1.51,3.58-1.46,7.19.23,10.69,1.5,3.09,4.05,4.76,7.5,4.99.92.06,1.83.01,2.74-.17,1.7-.34,3.15-1.13,4.34-2.38.3-.32.6-.64.93-1,.55.16.92.6,1.38.9.5.33.98.69,1.45,1.06.42.34.97.55,1.26,1.11-.22.5-.61.85-.98,1.2-1.99,1.89-4.32,3.13-7.02,3.67-2.42.48-4.85.6-7.26.09-4.71-.99-8.15-3.69-10.03-8.1-2.45-5.73-2.06-11.34,1.51-16.53,2.16-3.15,5.27-4.94,9.04-5.55,2.77-.45,5.5-.26,8.18.54,2.56.76,4.68,2.21,6.43,4.22.05.06.07.14.13.29Z"/>
  <path class="cls-1" d="m360.73,152.39c.07-.17.08-.31.16-.38,1.24-1.12,2.55-2.16,3.87-3.24,2.35,1.44,4,3.46,5.45,5.79.38-.37.69-.68,1.01-.98,1.84-1.75,3.86-3.23,6.26-4.12,1.06-.39,2.14-.64,3.27-.67.23,0,.46.04.72.06.04.19.09.35.09.5,0,1.6,0,3.2-.02,4.79,0,.11-.09.21-.15.37-.34.04-.69.08-1.05.12-3.59.39-6.11,2.35-7.88,5.4-.21.35-.32.73-.3,1.14.01.28,0,.56,0,.84,0,5.12,0,10.23,0,15.35,0,.46.14.96-.2,1.38-.95.18-4.34.19-5.36,0-.27-.3-.18-.67-.18-1.02,0-2,0-4,0-5.99,0-3.16.02-6.31-.01-9.47,0-.91-.09-1.84-.26-2.74-.38-2.03-1.41-3.73-2.93-5.11-.76-.7-1.6-1.31-2.48-2.02Z"/>
  <path class="cls-1" d="m335.5,178.71c-1.13.22-4.55.22-5.59.02-.04-.24-.12-.5-.13-.77-.01-1.28,0-2.56,0-3.84,0-4.04,0-8.08,0-12.11,0-1.05-.09-2.08-.37-3.08-.49-1.78-1.46-3.28-2.81-4.52-.59-.54-1.24-1.01-1.86-1.51-.15-.12-.34-.23-.45-.39-.07-.11-.06-.3-.02-.44.03-.1.14-.19.23-.26,1.19-1,2.39-2,3.63-3.03.26.15.5.27.72.43,1.57,1.14,2.89,2.51,3.96,4.13.24.36.49.72.75,1.11.41-.11.62-.43.86-.67,1.4-1.39,2.95-2.58,4.68-3.51,1.57-.85,3.22-1.39,5.02-1.47.23,0,.46.03.75.04.16,1.61.05,3.16.07,4.71,0,.31-.05.62-.09.95-.61.08-1.16.16-1.7.23-2.24.3-4.06,1.38-5.59,2.99-.33.35-.62.73-.91,1.11-.78,1-1.16,2.08-1.14,3.42.08,5.04.03,10.07.03,15.11,0,.43-.02.86-.04,1.35Z"/>
  <path class="cls-1" d="m711.29,24.05c.05-5,4.13-9.24,9.43-9.13,5.38.11,9.22,4.46,9.13,9.44-.08,4.67-3.68,9.15-9.33,9.13-5.78-.02-9.35-4.73-9.24-9.44Zm9.36-7.27c-3.43-.17-7.5,2.62-7.52,7.4-.02,4.38,3.51,7.44,7.35,7.48,4.28.04,7.51-3.5,7.53-7.43.01-4.21-3.54-7.51-7.35-7.45Z"/>
  <path class="cls-1" d="m203.4,179.45c-1.07-.06-2.09-.35-2.96-1.06-1.65-1.35-1.68-3.74-.07-5.12,1.67-1.43,4.39-1.47,6.1-.09,1.68,1.36,1.88,3.7-.02,5.26-.87.71-1.9.98-3.04,1.01Z"/>
  <path class="cls-1" d="m549.91,175.85c.02,1.03-.43,1.85-1.19,2.51-1.7,1.46-4.5,1.44-6.19-.02-1.58-1.37-1.59-3.67-.03-5.05,1.69-1.49,4.6-1.49,6.29.02.75.67,1.13,1.54,1.12,2.54Z"/>
  <path class="cls-1" d="m450.67,105.69s-.04.04-.07.06c-.01-.03-.04-.06-.04-.08,0-.02.04-.04.06-.06.01.03.03.06.04.09Z"/>
  <path class="cls-1" d="m722.52,24.85c.89.99,1.4,2.07,1.86,3.17.08.18.16.37.22.56.13.44-.05.72-.5.75-.43.02-.87,0-1.33,0-.22-.45-.41-.84-.61-1.22-.26-.5-.51-.99-.79-1.48-.59-1.05-1.48-1.53-2.76-1.37-.04.25-.12.52-.12.78-.02.84,0,1.68-.02,2.52-.02.6-.21.76-.81.78-.16,0-.32,0-.48-.02-.33-.04-.51-.21-.54-.53-.02-.24-.02-.48-.02-.72,0-2.52,0-5.03,0-7.55,0-.2,0-.4,0-.6.04-.49.19-.69.64-.69,1.4,0,2.79,0,4.19.03.24,0,.47.08.7.13,1.09.27,1.9.86,2.14,2.01.26,1.24-.09,2.29-1.16,3.04-.16.11-.34.21-.63.39Zm-3.97-1.41c.52.15,1,.09,1.47.09.36,0,.72-.02,1.07-.07.23-.04.46-.13.67-.24.42-.24.59-.63.56-1.1-.03-.46-.21-.83-.7-1.01-.75-.27-2.1-.3-3.06-.04-.12.77-.1,1.55,0,2.36Z"/>
</svg>