<?xml version="1.0" encoding="UTF-8"?>
<svg id="Layer_1" data-name="Layer 1" xmlns="http://www.w3.org/2000/svg" viewBox="0 0 228.33 112.67">
  <defs>
    <style>
      .cls-1 {
        fill: #231f20;
      }

      .cls-2 {
        stroke-width: .25px;
      }

      .cls-2, .cls-3, .cls-4 {
        fill: none;
        stroke: #231f20;
      }

      .cls-3 {
        stroke-dasharray: 0 0 0 7;
        stroke-linecap: round;
        stroke-linejoin: round;
      }

      .cls-4 {
        stroke-width: .35px;
      }
    </style>
  </defs>
  <line class="cls-3" x1="22.03" y1="66.65" x2="215.13" y2="66.65"/>
  <path class="cls-1" d="m34.31,24.23c-.25-.04-.28-1.01-.07-2.14.21-1.14.58-2.03.83-1.98.25.04.28,1.01.07,2.14-.21,1.14-.58,2.03-.83,1.98m-.27-4.75l-3.59,26.17c.12.72.42.08.42.08l5.38-25.84c-.97-1.79-2.21-.41-2.21-.41"/>
  <path class="cls-2" d="m23.89,23.48s-1.17,3.91,2.17,5.78c3.34,1.87,9.93-11.6,13.78-10.62,3.85.97,4.24,5.82,2.33,7.35-1.91,1.54-4.81-4.98,3.94-7.81,0,0,2.69-.88,5.11,1.26,2.43,2.14,2.88,2.07,3.51,1.7.63-.38.69-1.28.01-1.96"/>
  <path class="cls-1" d="m34.1,23.62s.09-1.82.44-2.7l-.94,1.77-.21,1.62.71-.69Z"/>
  <path class="cls-4" d="m195.37,28.47c-.69-.33-1.62-1.48-.36-2.92,1.27-1.44,2.76-4.03,1.72-5.23-1.04-1.21-5.29-2.36-8.74-.75-3.45,1.61-7.15,5.74-7.71,9.2-.57,3.57-.21,8.23,2.82,10.93,2.67,2.38,7.32,2.82,10.12,1.96,3.85-1.19,6.45-4.47,7.19-7.13.81-2.92-.06-4.14-1.27-5.06-1.21-.92-3-.62-3.78-1Z"/>
  <path class="cls-1" d="m187.15,34.66c0,.92-.75,1.68-1.68,1.68s-1.67-.75-1.67-1.68.75-1.67,1.67-1.67,1.68.75,1.68,1.67Z"/>
  <path class="cls-1" d="m185.88,29.34c0,.93-.75,1.68-1.67,1.68s-1.67-.75-1.67-1.68.75-1.67,1.67-1.67,1.67.75,1.67,1.67Z"/>
  <path class="cls-1" d="m188.52,24.87c0,.93-.75,1.68-1.67,1.68s-1.67-.75-1.67-1.68.75-1.67,1.67-1.67,1.67.75,1.67,1.67Z"/>
  <g>
    <path class="cls-1" d="m201.23,14.86s-.58.43-1.07,1.34c-.49.9-.93,2.67-.46,3.04.47.37.96.01,1.1-.43.14-.45.18-1.17.09-1.82-.09-.65.17-1.59.22-1.83.05-.24.12-.29.12-.29Z"/>
    <path class="cls-1" d="m200.56,19.92c-.02.1-.12.16-.21.14l-1.01-.22c-.1-.02-.16-.12-.14-.21h0c.02-.1.12-.16.21-.14l1.01.22c.1.02.16.12.14.21h0Z"/>
    <rect class="cls-1" x="197.54" y="21.6" width="3.66" height="1.06" transform="translate(135.88 212.41) rotate(-77.88)"/>
    <path class="cls-1" d="m199.63,24.42c-.02.1-.12.16-.22.14l-1.08-.23c-.1-.02-.16-.12-.14-.22h0c.02-.1.12-.16.22-.14l1.08.23c.1.02.16.12.14.22h0Z"/>
    <path class="cls-1" d="m196.7,36.88c-.87,3.95-1.66,7.14-1.73,7.42-.19.74-.78,2.74-1,2.69-.22-.05.02-1.84.18-2.87.06-.39.66-3.62,1.47-7.48,1.36-6.4,2.47-11.96,2.47-11.96l1.41.3s-1.39,5.52-2.79,11.89Z"/>
  </g>
  <g>
    <g>
      <path class="cls-1" d="m124.6,18.31c-.04.08-.14.11-.22.06l-.97-.53c-.08-.04-.11-.14-.07-.22h0c.04-.08.14-.11.22-.07l.97.53c.08.05.11.14.07.22h0Z"/>
      <path class="cls-1" d="m124.45,18.6c-.05.08-.15.11-.23.06l-.97-.53c-.08-.05-.11-.15-.07-.22h0c.04-.08.14-.11.22-.07l.97.53c.08.05.11.15.07.22h0Z"/>
      <path class="cls-1" d="m124.29,18.89c-.04.08-.14.11-.22.07l-.97-.53c-.08-.04-.11-.14-.06-.22h0c.04-.08.14-.11.22-.06l.97.53c.08.04.11.14.07.22h0Z"/>
      <path class="cls-1" d="m123.26,18.52l-13.02,24.01s-.38.96-.52,1.37c-.13.41-.21.62-.16.61.05,0,.36-.44.44-.53.09-.1.74-.97.84-1.15.1-.18,13.09-23.94,13.09-23.94l-.67-.37Z"/>
    </g>
    <g>
      <path class="cls-1" d="m109.18,17.62c.04.08.01.18-.07.22l-.98.51c-.08.04-.18.01-.22-.07h0c-.04-.08-.01-.18.07-.22l.98-.51c.08-.04.18-.01.22.07h0Z"/>
      <path class="cls-1" d="m109.34,17.91c.04.08,0,.18-.07.22l-.98.51c-.08.04-.18.01-.22-.07h0c-.04-.08-.01-.18.07-.22l.98-.51c.08-.04.18-.01.22.07h0Z"/>
      <path class="cls-1" d="m109.49,18.2c.04.08,0,.18-.07.22l-.98.51c-.08.04-.18.01-.22-.07h0c-.04-.08,0-.18.07-.22l.98-.51c.08-.04.18-.01.22.07h0Z"/>
      <path class="cls-1" d="m108.6,18.85l12.72,24.17s.59.85.86,1.19c.27.34.39.52.42.48.02-.04-.17-.54-.2-.67-.03-.12-.4-1.15-.5-1.33-.1-.18-12.63-24.19-12.63-24.19l-.68.35Z"/>
    </g>
  </g>
  <g>
    <path class="cls-1" d="m22.41,91.42c0,.56.07,1.09.21,1.59.14.49.35.93.64,1.29.28.37.64.66,1.07.87.43.21.93.32,1.51.32.32,0,.62-.04.91-.13.29-.09.55-.23.77-.43.21-.19.39-.42.55-.69.15-.27.31-.59.46-.96l.35.09c-.1.39-.18.75-.24,1.09-.06.34-.11.7-.15,1.09-.46.13-.92.24-1.38.32-.46.08-.91.11-1.37.11-.66,0-1.27-.1-1.83-.31-.56-.21-1.04-.5-1.45-.87s-.72-.83-.95-1.36c-.23-.53-.34-1.12-.34-1.77,0-.75.14-1.4.41-1.96.28-.56.65-1.03,1.12-1.4.47-.38,1.02-.65,1.64-.84.62-.18,1.28-.28,1.97-.28.36,0,.74.03,1.15.08.41.05.79.12,1.14.22-.04.38-.06.73-.07,1.07,0,.34-.01.69-.01,1.07l-.37.04c-.02-.35-.09-.65-.21-.9-.12-.26-.27-.47-.46-.63-.19-.17-.41-.29-.66-.37-.25-.08-.53-.12-.83-.12-.59,0-1.1.09-1.55.28-.45.18-.82.44-1.12.77-.3.33-.53.73-.69,1.2-.16.46-.23.98-.23,1.54Z"/>
    <path class="cls-1" d="m33.04,94.68c0,.14,0,.26.02.36.01.1.05.18.12.24.07.06.18.11.33.14.15.03.36.05.64.06v.32c-.28,0-.57,0-.86,0-.29,0-.58,0-.86,0-.11,0-.23,0-.37,0-.13,0-.27,0-.4,0s-.25,0-.37,0c-.12,0-.22,0-.3,0l-.02-.3c.23-.02.41-.04.55-.08.14-.04.25-.1.32-.18.08-.08.13-.19.15-.33.03-.14.04-.32.04-.54v-5.91c0-.14-.01-.26-.04-.35-.02-.09-.07-.17-.15-.23-.07-.06-.18-.11-.33-.14-.15-.03-.34-.05-.59-.06l.02-.32c.09,0,.2,0,.33,0,.12,0,.26,0,.41,0s.3,0,.45,0c.15,0,.3,0,.44,0,.23,0,.47-.02.71-.05.24-.03.48-.05.72-.05.35,0,.7.03,1.05.09.35.06.67.16.95.32.28.15.51.36.69.62.18.26.26.59.26,1,0,.27-.04.52-.13.76-.08.24-.2.46-.36.66-.15.2-.33.37-.54.52-.21.15-.44.27-.69.37.19.36.37.7.55,1.03.18.33.35.63.5.9.16.27.3.51.42.71.13.21.23.37.31.48.11.15.21.27.29.37.08.09.17.16.27.21.1.05.21.09.34.11.13.02.3.04.5.06l-.02.32c-.18,0-.41,0-.69,0-.28,0-.56,0-.82,0-.08,0-.17,0-.27,0-.1,0-.19,0-.27.01-.06-.12-.15-.3-.27-.54-.12-.24-.27-.51-.44-.83-.17-.31-.36-.66-.56-1.03s-.42-.74-.64-1.12c-.04-.06-.07-.11-.1-.16s-.07-.09-.12-.12c-.05-.03-.12-.06-.2-.08-.08-.02-.19-.03-.33-.03h-.26s-.1,0-.17,0c-.07,0-.15,0-.24-.01v2.79Zm0-3.22s.09,0,.14.01c.05,0,.09,0,.14,0h.28c.69,0,1.23-.16,1.6-.47.38-.32.57-.83.57-1.54,0-.6-.18-1.03-.54-1.31-.36-.28-.84-.41-1.44-.41-.18,0-.32.02-.43.05-.1.03-.18.08-.22.14-.05.06-.08.14-.09.24-.01.09-.02.2-.02.32v2.97Z"/>
    <path class="cls-1" d="m44.77,92.68h-2.93l-.68,1.73c-.12.33-.18.54-.18.63,0,.15.07.26.21.32.14.06.4.1.77.12l-.03.32c-.22,0-.46,0-.73,0-.27,0-.54,0-.8,0-.22,0-.44,0-.67,0-.23,0-.45,0-.67,0l-.02-.3c.23-.02.42-.04.56-.08.15-.04.27-.11.38-.21.11-.1.21-.24.31-.42.1-.18.21-.42.34-.72l2.43-5.95c.07-.18.14-.33.22-.46.08-.13.15-.28.21-.43l.55-.07c.06.28.13.54.21.77.07.23.14.45.21.64l1.98,5.73c.09.26.17.46.24.61.07.15.15.26.25.34.09.08.21.13.36.16.14.03.33.05.56.07l-.03.32c-.25,0-.52,0-.81,0-.3,0-.59,0-.89,0-.25,0-.5,0-.75,0-.25,0-.5,0-.75,0l-.03-.3c.33-.02.56-.06.7-.12.14-.05.21-.16.21-.31,0-.06-.01-.14-.04-.22-.02-.09-.05-.18-.09-.29l-.62-1.87Zm-2.72-.51h2.56l-1.15-3.48h-.03l-1.38,3.48Z"/>
    <path class="cls-1" d="m49.13,87.36c.12,0,.26,0,.41,0,.15,0,.3,0,.45,0s.3,0,.46,0c.15,0,.29,0,.41,0,.23,0,.68,0,1.35,0,.67,0,1.59,0,2.76,0-.04.3-.06.62-.08.96-.02.34-.03.69-.04,1.06h-.35c-.05-.3-.11-.56-.18-.76-.06-.2-.16-.37-.27-.49-.12-.12-.27-.21-.46-.26-.19-.05-.43-.07-.73-.07h-1.12c-.18,0-.29.02-.34.05-.05.04-.07.12-.07.27v3.23l2.84-.09.06.06-.02.74c-.53-.05-1.04-.08-1.51-.1-.47-.02-.93-.04-1.37-.05v2.78c0,.14.01.26.04.36.03.1.09.18.19.24.1.06.24.11.43.14.19.03.45.05.77.06l-.02.32c-.12,0-.26,0-.44,0-.18,0-.36,0-.55,0s-.38,0-.56,0c-.18,0-.33,0-.46,0-.1,0-.22,0-.35,0-.13,0-.27,0-.41,0s-.28,0-.41,0c-.13,0-.25,0-.35,0l-.03-.3c.25-.02.44-.04.59-.08.15-.04.26-.1.35-.18s.14-.19.17-.33c.03-.14.04-.32.04-.53v-5.91c0-.14-.01-.26-.04-.35-.03-.09-.08-.17-.16-.23-.08-.06-.2-.11-.37-.14s-.38-.05-.65-.06l.03-.32Z"/>
    <path class="cls-1" d="m59.88,87.38c.2,0,.45,0,.76,0,.31,0,.62,0,.94,0s.66,0,1,0c.35,0,.69,0,1.05,0-.02.21-.03.39-.05.57-.01.17-.03.34-.04.51,0,.17-.01.33-.02.5,0,.17,0,.36,0,.55l-.33.02c-.05-.32-.11-.58-.17-.8-.06-.22-.15-.39-.27-.53-.12-.14-.28-.24-.47-.29-.2-.06-.46-.09-.79-.09h-1v6.9c0,.14.01.26.04.35.02.09.08.17.16.23.08.06.21.11.37.14.17.03.39.05.68.06l-.02.32c-.12,0-.26,0-.42,0-.16,0-.31,0-.48,0s-.33,0-.49,0c-.16,0-.31,0-.45,0-.12,0-.25,0-.38,0-.14,0-.28,0-.42,0s-.28,0-.42,0c-.14,0-.27,0-.38,0l-.03-.3c.27-.02.49-.04.65-.08.16-.04.29-.09.37-.18s.14-.19.16-.33c.03-.14.04-.32.04-.54v-6.57h-.98c-.33,0-.59.03-.79.09-.2.06-.37.16-.49.29-.12.14-.22.31-.28.53-.06.22-.12.48-.18.8l-.33-.02v-.55c0-.26,0-.52-.01-.76,0-.24-.03-.52-.06-.83.35,0,.7,0,1.04,0,.34,0,.67,0,.98,0s.59,0,.84,0c.24,0,.46,0,.67,0Z"/>
    <path class="cls-1" d="m65.49,93.34c.12.3.24.59.37.84.13.26.29.48.47.67.18.19.4.34.65.45.25.11.54.16.89.16.23,0,.44-.04.63-.12.19-.08.36-.18.51-.32.15-.14.26-.31.34-.5.08-.19.12-.4.12-.63,0-.29-.05-.53-.16-.74-.11-.21-.25-.38-.42-.53-.18-.15-.38-.28-.6-.39-.22-.11-.45-.22-.69-.32-.26-.12-.53-.25-.8-.39s-.5-.31-.72-.5c-.21-.19-.38-.42-.52-.67-.13-.25-.2-.55-.2-.9,0-.37.08-.7.22-.98.15-.29.35-.52.61-.72.25-.19.55-.34.89-.44.34-.1.7-.15,1.08-.15s.71.03,1.02.08c.31.06.65.13,1.01.22-.02.19-.03.36-.04.52-.01.16-.02.32-.02.47,0,.15,0,.31,0,.47,0,.16,0,.33,0,.52l-.37.04c-.05-.62-.24-1.08-.57-1.39-.32-.31-.76-.46-1.31-.46-.21,0-.4.03-.58.1-.18.06-.33.16-.46.28-.13.12-.23.27-.3.44-.07.17-.11.36-.11.57,0,.28.04.52.14.71.09.19.21.36.37.5s.34.26.55.37c.21.1.43.2.66.3.28.12.56.26.85.4.28.15.54.32.76.52.23.2.41.43.55.69.14.26.21.57.21.93,0,.4-.08.75-.25,1.06-.16.31-.38.57-.65.78-.27.21-.58.38-.93.49-.35.11-.71.17-1.08.17-.32,0-.66-.03-1-.1s-.71-.15-1.1-.26c-.04-.39-.09-.75-.15-1.09-.06-.34-.14-.7-.24-1.09l.37-.09Z"/>
    <path class="cls-1" d="m82.59,92.68h-2.93l-.68,1.73c-.12.33-.18.54-.18.63,0,.15.07.26.22.32.14.06.4.1.77.12l-.03.32c-.22,0-.46,0-.73,0-.27,0-.54,0-.8,0-.22,0-.44,0-.67,0-.23,0-.46,0-.67,0l-.02-.3c.23-.02.42-.04.56-.08.15-.04.27-.11.38-.21.11-.1.21-.24.31-.42.1-.18.21-.42.34-.72l2.43-5.95c.07-.18.15-.33.22-.46.08-.13.15-.28.21-.43l.55-.07c.06.28.13.54.21.77.07.23.14.45.21.64l1.98,5.73c.09.26.17.46.24.61.07.15.15.26.25.34.09.08.21.13.36.16.14.03.33.05.56.07l-.03.32c-.25,0-.52,0-.81,0-.3,0-.59,0-.89,0-.25,0-.5,0-.75,0-.25,0-.5,0-.75,0l-.03-.3c.33-.02.56-.06.7-.12.14-.05.21-.16.21-.31,0-.06-.01-.14-.04-.22-.02-.09-.05-.18-.09-.29l-.62-1.87Zm-2.72-.51h2.56l-1.15-3.48h-.03l-1.38,3.48Z"/>
    <path class="cls-1" d="m86.8,87.36c.07,0,.19,0,.37,0,.17,0,.36,0,.58,0s.42,0,.64,0c.22,0,.4,0,.56,0,.11.25.21.5.32.75.11.25.22.49.33.75l2.49,5.54h.03l2.43-5.65c.1-.23.2-.46.29-.69.09-.23.19-.46.28-.69.11,0,.27,0,.48,0,.21,0,.42,0,.64,0s.43,0,.62,0c.19,0,.33,0,.41,0l.02.3c-.26.02-.46.05-.62.08-.16.04-.27.1-.36.18-.08.08-.13.19-.16.33-.02.14-.03.32-.03.54l.18,5.92c0,.14.02.26.06.35.03.09.09.17.18.23.08.06.21.11.36.14.15.03.36.05.62.06l-.02.32c-.11,0-.23,0-.37,0-.14,0-.29,0-.45,0s-.31,0-.47,0c-.16,0-.31,0-.45,0-.12,0-.24,0-.36,0-.13,0-.25,0-.37,0s-.24,0-.35,0c-.11,0-.21,0-.29,0l-.03-.3c.21-.02.38-.04.5-.08.13-.04.22-.1.29-.18.07-.08.11-.19.12-.33.01-.14.02-.32.01-.53l-.16-5.58-.03-.03c-.52,1.19-1.02,2.37-1.53,3.54-.5,1.17-1,2.36-1.5,3.56l-.42.05c-.5-1.16-1-2.29-1.5-3.38-.5-1.1-1.01-2.21-1.53-3.36l-.04.02-.18,5.06c-.01.28,0,.49.02.65.02.15.07.27.15.35.08.08.18.13.33.16.14.03.32.05.55.06l-.02.32c-.19,0-.39,0-.61,0-.22,0-.47,0-.75,0-.22,0-.46,0-.7,0-.24,0-.47,0-.67,0l-.03-.3c.24-.02.44-.05.59-.08.15-.03.27-.1.36-.2.09-.1.15-.25.18-.45s.06-.47.07-.83l.18-4.54c0-.21,0-.39,0-.54,0-.15-.02-.28-.04-.39-.02-.11-.06-.2-.1-.28-.04-.08-.09-.15-.16-.21-.11-.11-.25-.19-.42-.23s-.37-.07-.59-.08l.02-.32Z"/>
    <path class="cls-1" d="m101.23,94.36c0,.2.01.36.04.49.03.13.08.23.16.3.08.07.19.12.33.15.14.03.34.04.58.04h.64c.34,0,.62-.03.83-.08.21-.06.39-.15.54-.28.15-.13.28-.31.39-.52.11-.22.24-.48.37-.8l.34.08c-.05.17-.09.35-.13.55-.04.19-.08.38-.11.57-.04.19-.06.36-.09.53-.02.16-.04.3-.04.4-1.17,0-2.11,0-2.83,0-.72,0-1.26,0-1.62,0-.11,0-.23,0-.37,0-.14,0-.29,0-.44,0s-.3,0-.44,0c-.14,0-.27,0-.37,0l-.03-.3c.27-.02.49-.04.65-.08.16-.04.29-.1.38-.18.09-.08.15-.19.18-.33.03-.14.04-.32.04-.54v-5.91c0-.14-.01-.26-.04-.35-.03-.09-.08-.17-.16-.23-.08-.06-.19-.11-.34-.14-.15-.03-.35-.05-.6-.06l.03-.32c.11,0,.24,0,.38,0,.14,0,.29,0,.43,0s.3,0,.44,0c.14,0,.28,0,.4,0,.23,0,.71,0,1.44,0,.73,0,1.66,0,2.79,0-.04.3-.06.61-.08.94-.02.33-.03.68-.04,1.05h-.35c-.05-.3-.11-.55-.18-.75-.06-.2-.16-.36-.27-.48-.12-.12-.27-.2-.46-.26-.19-.05-.43-.07-.73-.07h-1.26c-.18,0-.29.02-.34.05s-.07.12-.07.27v3.04l2.97-.09.06.06-.02.73c-.53-.05-1.06-.08-1.58-.1-.52-.02-1-.03-1.44-.04v2.65Z"/>
    <path class="cls-1" d="m109.3,94.68c0,.14,0,.26.02.36.01.1.05.18.12.24.07.06.18.11.33.14.15.03.36.05.64.06v.32c-.28,0-.57,0-.86,0-.29,0-.58,0-.86,0-.11,0-.23,0-.37,0-.13,0-.27,0-.4,0s-.25,0-.37,0c-.12,0-.22,0-.3,0l-.02-.3c.23-.02.41-.04.55-.08.14-.04.25-.1.32-.18.08-.08.13-.19.15-.33.03-.14.04-.32.04-.54v-5.91c0-.14-.01-.26-.04-.35-.02-.09-.07-.17-.15-.23-.07-.06-.18-.11-.33-.14s-.34-.05-.59-.06l.02-.32c.09,0,.2,0,.33,0,.12,0,.26,0,.41,0s.3,0,.45,0c.15,0,.3,0,.44,0,.23,0,.47-.02.71-.05.24-.03.48-.05.72-.05.35,0,.7.03,1.05.09.35.06.67.16.95.32.28.15.51.36.69.62.18.26.26.59.26,1,0,.27-.04.52-.13.76-.08.24-.2.46-.36.66-.15.2-.33.37-.54.52-.21.15-.44.27-.69.37.19.36.37.7.55,1.03.18.33.35.63.5.9.16.27.3.51.42.71.13.21.23.37.31.48.11.15.21.27.29.37.08.09.17.16.27.21.1.05.21.09.34.11.13.02.3.04.5.06l-.02.32c-.18,0-.41,0-.69,0-.28,0-.56,0-.82,0-.08,0-.17,0-.27,0-.1,0-.19,0-.27.01-.06-.12-.15-.3-.27-.54-.12-.24-.27-.51-.44-.83-.17-.31-.36-.66-.56-1.03-.21-.37-.42-.74-.64-1.12-.04-.06-.07-.11-.1-.16-.03-.05-.07-.09-.12-.12-.05-.03-.12-.06-.2-.08-.08-.02-.19-.03-.33-.03h-.26s-.1,0-.17,0c-.07,0-.15,0-.24-.01v2.79Zm0-3.22s.09,0,.14.01c.05,0,.09,0,.14,0h.28c.69,0,1.23-.16,1.6-.47.38-.32.57-.83.57-1.54,0-.6-.18-1.03-.54-1.31-.36-.28-.84-.41-1.44-.41-.18,0-.32.02-.43.05-.1.03-.18.08-.22.14s-.08.14-.09.24c-.01.09-.02.2-.02.32v2.97Z"/>
    <path class="cls-1" d="m116.14,95.5c.23-.02.41-.04.55-.08.14-.04.25-.1.33-.18s.13-.19.16-.33c.03-.14.04-.32.04-.54v-5.91c0-.14-.01-.26-.04-.35-.02-.09-.07-.17-.15-.23-.08-.06-.19-.11-.34-.14-.15-.03-.34-.05-.58-.06l.02-.32c.09,0,.21,0,.34,0,.13,0,.28,0,.43,0s.32,0,.48,0c.16,0,.31,0,.45,0,.11,0,.24,0,.37,0,.14,0,.27,0,.41,0s.26,0,.38,0c.12,0,.22,0,.3,0l.04.3c-.23.02-.41.05-.56.08-.14.04-.26.1-.34.18-.08.08-.14.19-.17.33-.03.14-.04.31-.04.53v5.92c0,.14.01.26.04.35.02.09.07.17.15.23.08.06.19.11.33.14s.34.05.59.06v.32c-.09,0-.21,0-.35,0-.14,0-.29,0-.45,0s-.31,0-.47,0c-.16,0-.31,0-.45,0-.12,0-.24,0-.38,0-.13,0-.27,0-.4,0s-.26,0-.38,0c-.12,0-.22,0-.3,0l-.03-.3Z"/>
    <path class="cls-1" d="m122.59,91.42c0,.56.07,1.09.21,1.59.14.49.35.93.64,1.29.28.37.64.66,1.07.87.43.21.93.32,1.51.32.32,0,.62-.04.91-.13.29-.09.55-.23.77-.43.21-.19.39-.42.55-.69.15-.27.31-.59.46-.96l.35.09c-.1.39-.18.75-.24,1.09-.06.34-.11.7-.15,1.09-.46.13-.92.24-1.37.32-.46.08-.91.11-1.37.11-.66,0-1.27-.1-1.83-.31-.56-.21-1.04-.5-1.45-.87s-.72-.83-.95-1.36c-.23-.53-.34-1.12-.34-1.77,0-.75.14-1.4.41-1.96.28-.56.65-1.03,1.12-1.4.47-.38,1.02-.65,1.64-.84.62-.18,1.28-.28,1.97-.28.36,0,.74.03,1.15.08.41.05.79.12,1.14.22-.04.38-.06.73-.07,1.07,0,.34-.01.69-.01,1.07l-.37.04c-.02-.35-.09-.65-.21-.9-.12-.26-.27-.47-.46-.63-.19-.17-.41-.29-.66-.37-.25-.08-.53-.12-.83-.12-.59,0-1.1.09-1.55.28-.45.18-.82.44-1.12.77-.3.33-.53.73-.69,1.2-.16.46-.23.98-.23,1.54Z"/>
    <path class="cls-1" d="m136.01,92.68h-2.93l-.68,1.73c-.12.33-.18.54-.18.63,0,.15.07.26.21.32.14.06.4.1.77.12l-.03.32c-.22,0-.46,0-.73,0-.27,0-.54,0-.8,0-.22,0-.44,0-.67,0-.23,0-.46,0-.67,0l-.02-.3c.23-.02.42-.04.56-.08.15-.04.27-.11.38-.21.11-.1.21-.24.31-.42.1-.18.21-.42.34-.72l2.43-5.95c.07-.18.14-.33.22-.46.08-.13.15-.28.21-.43l.55-.07c.06.28.13.54.21.77.07.23.14.45.21.64l1.98,5.73c.09.26.17.46.24.61.07.15.15.26.25.34.09.08.21.13.36.16.14.03.33.05.56.07l-.03.32c-.25,0-.52,0-.81,0-.3,0-.59,0-.89,0-.25,0-.5,0-.75,0-.25,0-.5,0-.75,0l-.03-.3c.33-.02.56-.06.7-.12.14-.05.21-.16.21-.31,0-.06-.01-.14-.04-.22-.02-.09-.05-.18-.09-.29l-.62-1.87Zm-2.72-.51h2.56l-1.15-3.48h-.03l-1.38,3.48Z"/>
    <path class="cls-1" d="m147.67,95.92c-.15-.22-.3-.43-.46-.63-.15-.2-.31-.41-.48-.61l-4.7-5.58-.04.02v5.14c0,.28.02.49.05.65.03.15.09.27.18.35.09.08.21.13.36.16.15.03.34.05.58.06l-.02.32c-.19,0-.41,0-.66,0-.26,0-.52,0-.8,0-.22,0-.46,0-.7,0-.24,0-.47,0-.67,0l-.03-.3c.23-.02.43-.05.58-.08.15-.03.27-.1.36-.2.09-.1.15-.25.19-.45.04-.2.05-.47.05-.83v-4.4c0-.25,0-.45,0-.6,0-.15-.02-.28-.04-.37-.02-.1-.05-.18-.08-.24-.04-.06-.08-.13-.14-.2-.06-.08-.12-.14-.18-.19-.06-.05-.13-.1-.2-.13-.08-.04-.17-.06-.28-.08-.11-.02-.25-.03-.41-.05l.02-.32c.07,0,.17,0,.31,0,.14,0,.29,0,.46,0s.35,0,.53,0c.18,0,.35,0,.51,0l5.62,6.64.03-.02v-5.09c0-.28-.02-.49-.05-.64-.03-.16-.09-.27-.18-.35-.09-.08-.21-.13-.36-.16-.15-.03-.35-.05-.59-.07l.02-.32c.19,0,.41,0,.67,0s.53,0,.81,0c.11,0,.23,0,.35,0,.12,0,.24,0,.37,0,.12,0,.23,0,.34,0,.11,0,.2,0,.29,0v.3c-.22.02-.41.05-.55.09-.15.04-.26.1-.35.2-.08.1-.14.25-.18.45-.04.2-.05.47-.05.83v6.61l-.46.09Z"/>
    <path class="cls-1" d="m155.91,92.68h-2.93l-.68,1.73c-.12.33-.18.54-.18.63,0,.15.07.26.22.32.14.06.4.1.77.12l-.03.32c-.22,0-.46,0-.73,0-.27,0-.54,0-.8,0-.22,0-.44,0-.67,0-.23,0-.46,0-.67,0l-.02-.3c.23-.02.42-.04.56-.08.15-.04.27-.11.38-.21.11-.1.21-.24.31-.42.1-.18.21-.42.34-.72l2.43-5.95c.07-.18.15-.33.22-.46.08-.13.15-.28.21-.43l.55-.07c.06.28.13.54.21.77.07.23.14.45.21.64l1.98,5.73c.09.26.17.46.24.61.07.15.15.26.25.34.09.08.21.13.36.16s.33.05.56.07l-.03.32c-.25,0-.52,0-.81,0-.3,0-.59,0-.89,0-.25,0-.5,0-.75,0-.25,0-.5,0-.75,0l-.03-.3c.33-.02.56-.06.7-.12.14-.05.21-.16.21-.31,0-.06-.01-.14-.04-.22-.02-.09-.05-.18-.09-.29l-.62-1.87Zm-2.72-.51h2.56l-1.15-3.48h-.03l-1.38,3.48Z"/>
    <path class="cls-1" d="m172.87,89.68c-.02-.35-.1-.65-.23-.9-.13-.26-.3-.47-.51-.64-.21-.17-.46-.3-.74-.38-.28-.08-.58-.12-.91-.12-.6,0-1.13.09-1.57.28-.45.18-.81.44-1.11.77-.29.33-.51.73-.65,1.2-.14.46-.22.98-.22,1.54s.07,1.09.22,1.59c.15.49.37.93.66,1.29.29.37.66.66,1.11.87.45.21.97.32,1.57.32.08,0,.22,0,.41-.03.19-.02.39-.05.58-.1.2-.05.37-.11.52-.19.15-.08.22-.17.22-.29v-1.74c0-.14-.02-.26-.05-.35-.04-.09-.11-.17-.21-.23-.11-.06-.26-.11-.45-.14-.2-.03-.46-.05-.78-.06l.02-.32c.14,0,.29,0,.46,0,.17,0,.33,0,.5,0s.33,0,.49,0c.16,0,.3,0,.43,0,.12,0,.24,0,.37,0,.13,0,.25,0,.38,0s.24,0,.35,0c.11,0,.21,0,.3,0l.03.3c-.17.02-.31.04-.41.08-.11.04-.19.09-.25.18-.06.08-.1.19-.12.33-.02.14-.03.31-.03.53v.56c0,.28,0,.55,0,.81,0,.26.02.47.05.64-.47.13-.96.24-1.45.34-.5.1-.97.15-1.44.15-.69,0-1.32-.1-1.89-.31-.58-.21-1.08-.5-1.49-.87-.42-.38-.75-.83-.98-1.36-.23-.53-.35-1.12-.35-1.77,0-.75.13-1.4.4-1.96.27-.56.63-1.03,1.09-1.4.46-.38,1-.65,1.63-.84.62-.18,1.29-.28,2-.28.18,0,.38,0,.6.03s.43.04.66.07c.22.03.44.07.65.11.21.04.41.09.58.13-.04.38-.05.73-.06,1.06,0,.33,0,.68,0,1.06l-.37.04Z"/>
    <path class="cls-1" d="m177.99,94.68c0,.14,0,.26.02.36.01.1.05.18.12.24.07.06.18.11.33.14.15.03.36.05.64.06v.32c-.28,0-.57,0-.86,0-.29,0-.58,0-.86,0-.11,0-.23,0-.37,0-.13,0-.27,0-.4,0s-.25,0-.37,0c-.12,0-.22,0-.3,0l-.02-.3c.23-.02.41-.04.55-.08.14-.04.24-.1.32-.18.08-.08.13-.19.15-.33.03-.14.04-.32.04-.54v-5.91c0-.14-.01-.26-.04-.35-.02-.09-.07-.17-.14-.23-.07-.06-.18-.11-.33-.14s-.34-.05-.59-.06l.02-.32c.09,0,.2,0,.33,0,.13,0,.26,0,.41,0s.3,0,.45,0c.15,0,.3,0,.44,0,.23,0,.47-.02.71-.05.24-.03.48-.05.73-.05.35,0,.7.03,1.05.09s.67.16.95.32c.28.15.51.36.69.62.18.26.26.59.26,1,0,.27-.04.52-.13.76-.09.24-.2.46-.36.66-.15.2-.33.37-.54.52-.21.15-.44.27-.69.37.19.36.37.7.55,1.03.18.33.35.63.51.9.15.27.29.51.42.71.12.21.23.37.31.48.11.15.21.27.29.37.08.09.17.16.27.21.1.05.21.09.34.11.13.02.3.04.5.06l-.02.32c-.18,0-.41,0-.69,0-.29,0-.56,0-.82,0-.08,0-.17,0-.27,0-.1,0-.19,0-.27.01-.06-.12-.15-.3-.27-.54-.12-.24-.27-.51-.44-.83-.17-.31-.36-.66-.56-1.03-.2-.37-.42-.74-.64-1.12-.04-.06-.07-.11-.1-.16-.03-.05-.07-.09-.12-.12-.05-.03-.12-.06-.2-.08-.08-.02-.19-.03-.33-.03h-.26s-.1,0-.17,0c-.07,0-.15,0-.24-.01v2.79Zm0-3.22s.09,0,.14.01c.05,0,.09,0,.14,0h.28c.69,0,1.23-.16,1.6-.47.38-.32.57-.83.57-1.54,0-.6-.18-1.03-.54-1.31-.36-.28-.84-.41-1.44-.41-.18,0-.32.02-.43.05-.1.03-.18.08-.22.14s-.08.14-.09.24c-.01.09-.02.2-.02.32v2.97Z"/>
    <path class="cls-1" d="m189.23,87.18c.64,0,1.23.1,1.76.3.54.2,1,.49,1.38.87.38.38.68.83.89,1.36.21.53.32,1.12.32,1.78s-.11,1.25-.32,1.8c-.21.55-.51,1.02-.89,1.42-.38.4-.84.71-1.37.93-.53.22-1.12.33-1.78.33s-1.22-.1-1.76-.3c-.53-.2-.99-.49-1.37-.87-.38-.38-.68-.83-.9-1.36-.21-.53-.32-1.12-.32-1.78s.11-1.25.32-1.8c.21-.55.51-1.02.89-1.42.38-.4.84-.71,1.37-.93.53-.22,1.12-.33,1.78-.33Zm-.05.47c-.4,0-.79.07-1.16.2-.37.13-.7.34-.98.64-.29.29-.51.67-.68,1.14-.17.46-.25,1.03-.25,1.7,0,.79.1,1.45.29,1.98s.44.96.75,1.29c.3.33.65.56,1.02.7.38.14.75.21,1.13.21.4,0,.79-.06,1.16-.2.37-.13.7-.34.98-.64.28-.29.51-.67.68-1.14.17-.46.25-1.03.25-1.7,0-.79-.1-1.44-.29-1.98-.19-.53-.44-.96-.75-1.29-.3-.33-.65-.56-1.02-.7-.38-.14-.75-.21-1.13-.21Z"/>
    <path class="cls-1" d="m197.55,92.9c0,.42.07.78.21,1.09.14.3.33.55.56.74.23.19.49.33.79.42.29.09.59.13.91.13s.62-.05.91-.14c.29-.1.54-.25.76-.46.22-.21.4-.49.53-.83.13-.34.2-.74.2-1.22v-3.69c0-.26-.02-.46-.06-.62-.04-.16-.11-.28-.21-.37-.1-.09-.25-.15-.43-.19-.18-.04-.42-.06-.7-.08l.02-.32c.21,0,.45,0,.74,0,.29,0,.59,0,.91,0,.26,0,.53,0,.81-.01.28,0,.52-.01.7-.01v.3c-.25.02-.46.05-.62.08-.16.03-.29.1-.39.19-.1.09-.16.23-.2.41-.04.18-.05.43-.05.75v3.72c0,.57-.1,1.06-.29,1.46-.19.4-.45.73-.76.98-.31.26-.67.44-1.06.55-.4.11-.8.17-1.21.17s-.79-.05-1.16-.17c-.37-.11-.7-.28-.98-.51s-.51-.52-.68-.86c-.17-.35-.25-.75-.25-1.22v-4.69c0-.14-.01-.26-.04-.36-.03-.1-.08-.18-.17-.25-.08-.07-.21-.12-.36-.15-.16-.04-.37-.06-.63-.07l.02-.32c.11,0,.23,0,.37,0,.14,0,.29,0,.45,0s.33,0,.5,0c.17,0,.32,0,.47,0,.12,0,.25,0,.39,0,.14,0,.29,0,.43,0s.29,0,.42,0c.13,0,.25,0,.35,0l.03.3c-.25.02-.46.05-.62.09s-.28.11-.37.19-.15.2-.18.35c-.03.14-.05.32-.05.54v4.07Z"/>
    <path class="cls-1" d="m207.8,94.68c0,.14,0,.26.03.36.02.1.07.18.16.24.09.06.22.11.4.14.18.03.43.05.75.06l-.02.32c-.32,0-.65,0-.99,0-.35,0-.66,0-.94,0-.11,0-.23,0-.37,0-.13,0-.27,0-.4,0s-.25,0-.37,0c-.12,0-.22,0-.3,0l-.02-.3c.23-.02.41-.04.55-.08.14-.04.25-.1.32-.18.08-.08.13-.19.15-.33.03-.14.04-.32.04-.54v-5.91c0-.14-.01-.26-.04-.35-.02-.09-.07-.17-.15-.23-.07-.06-.18-.11-.33-.14s-.34-.05-.59-.06l.02-.32c.09,0,.2,0,.33,0,.12,0,.26,0,.41,0s.3,0,.45,0c.15,0,.3,0,.44,0,.21,0,.45-.01.72-.04.27-.03.54-.04.8-.04.42,0,.81.04,1.19.12.38.08.71.22.99.4.28.19.51.44.68.74.17.31.25.68.25,1.13s-.09.84-.27,1.18c-.18.33-.42.61-.71.83-.29.22-.62.39-.98.5-.36.11-.73.17-1.1.17-.22,0-.44-.01-.64-.04-.2-.03-.36-.07-.47-.12v2.47Zm0-2.91c.13.04.28.07.43.09.15.02.32.03.51.03.23,0,.46-.04.7-.11.24-.07.46-.19.66-.36.2-.17.36-.39.49-.66.13-.28.19-.62.19-1.04,0-.67-.18-1.17-.55-1.49-.37-.32-.88-.48-1.53-.48-.21,0-.37.01-.48.04-.12.02-.21.06-.27.11-.06.05-.1.12-.12.2-.02.08-.03.19-.03.31v3.37Z"/>
  </g>
</svg>