<?xml version="1.0" encoding="UTF-8"?><svg id="Layer_2" xmlns="http://www.w3.org/2000/svg" viewBox="0 0 736.8 138.9"><defs><style>.cls-1{fill:#ffab15;}</style></defs><g id="Layer_1-2"><g><g><path class="cls-1" d="m373.46,75.03c10.88,0,20.71,4.72,26.61,12.98l-14.81,10.62c-2.49-3.93-7.08-6.16-11.8-6.16-7.74,0-15.21,5.51-15.21,14.29s7.47,14.69,15.21,14.69c4.72,0,9.31-2.23,11.8-6.17l14.81,10.49c-5.77,8.26-15.6,13.12-26.61,13.12-17.57,0-33.3-12.85-33.3-32.12s15.73-31.73,33.3-31.73Z"/><path class="cls-1" d="m426.64,137.57h-18.22v-61.22h18.22v14.81c3.15-11.41,11.01-16.13,17.31-16.13,4.33,0,7.6.79,10.49,2.23l-3.28,16.38c-3.27-1.57-6.43-1.83-9.31-1.83-10.49,0-15.21,8.26-15.21,24.38v21.37Z"/><path class="cls-1" d="m503.44,130.62c-3.93,5.9-13.11,8.13-17.83,8.13-15.6,0-31.2-12.2-31.2-31.86s15.6-31.86,31.2-31.86c3.93,0,13.11,1.31,17.83,8.13v-6.81h18.09v61.22h-18.09v-6.95Zm-14.82-9.17c7.48,0,14.82-5.38,14.82-14.56s-7.34-14.55-14.82-14.55-15.34,5.77-15.34,14.55,7.73,14.56,15.34,14.56Z"/><path class="cls-1" d="m650.36,112.39c-18.35-4.98-18.48-14.29-18.35-19.93.13-9.04,11.01-17.44,23.86-17.44s25.04,5.38,25.17,20.32h-17.18c-.13-4.59-4.07-5.37-6.95-5.37-3.93,0-6.55,1.83-6.42,4.59.13,1.84,1.7,3.67,5.37,4.59l10.36,2.76c14.82,4.06,16.65,13.9,16.65,17.83,0,12.98-13.64,19.14-26.49,19.14s-25.44-7.47-25.57-21.11h17.05c.13,3.54,4.06,7.08,9.04,7.08,4.07-.13,7.47-1.97,7.47-5.11,0-2.62-1.57-4.06-6.03-5.25l-8-2.1Z"/><path class="cls-1" d="m609.41,76.34v-20.71l-18.35,5.9v14.81h-11.14v16.05h11.04v25.64c0,6.42,1.92,11.55,5.67,15.27,3.77,3.71,9.01,5.59,15.56,5.59,4.07,0,7.68-.65,9.81-1.64v-15.73c-1.67.35-3.26.53-4.67.53-5.16,0-7.89-2.64-7.89-7.64v-22.02h12.57v-16.05h-12.59Z"/><path class="cls-1" d="m565.73,44.35c-3.77,0-11.8.56-17.57,6.72-4.2,4.49-6.35,10.5-6.35,17.94l-.02,7.33h-11.54v16.05h11.54v45.18h18.36v-45.18h12.33v-16.05h-12.33v-6.68c0-3.43.94-5.91,2.78-7.35,1.79-1.4,3.66-2.09,6.28-2.11,2.48-.02,4.57.36,5.17.49v-15.13c-1.82-.8-4.74-1.21-8.66-1.21Z"/></g><path class="cls-1" d="m731.21,105.2h-33.94c-3.08,0-5.59,2.5-5.59,5.58s2.51,5.59,5.59,5.59h33.94c3.08,0,5.58-2.5,5.58-5.59s-2.51-5.58-5.58-5.58Z"/><path class="cls-1" d="m39.53,105.2H5.59c-3.08,0-5.59,2.5-5.59,5.59s2.51,5.59,5.59,5.59h33.94c3.08,0,5.59-2.5,5.59-5.59s-2.51-5.59-5.59-5.59Z"/><path class="cls-1" d="m323.57,102.29c-1.45.64-2.46,2-3.47,3.27-.26.33-7.34,9.34-11.82,13.19-4.15,3.57-11.47,7.39-18.53,7.29-14.76-.21-19.59-11.7-19.59-11.7,0,0,15.73-2.93,25.19-13.7,8.3-9.44,8.65-18.96,6.37-25.03-2.74-7.29-9.62-12.07-17.67-12-11.02.11-19.22,8.36-23.7,17.43-2.69,5.42-4.42,11.71-4.92,18.1-7.52-6.52-9.64-20.8-10.47-24.56-.82-3.74-1.37-5.01-2.35-6.11-1.58-1.75-4.06-2.38-5.85-2.15-6.76.83-6.25,7.67-6.03,11.87.08,1.45.15,2.82.05,4.06-.88,12.45-5.42,25.32-13.07,36.57-3.08,4.54-4.85,5.99-5.22,6.01-.37.02-2.59-1.5-4.97-4.79-7.11-9.84-11.94-22.37-13.49-34.48-.36-2.87-.46-5.84-.29-9.08.16-2.86.16-5.84-1.7-7.96-1.23-1.4-3.06-2.2-5.05-2.2-2.91,0-5.49,1.68-6.42,4.19-.25.49-.67,2.9-.77,4.26-.32,4.59-1.75,9.64-3.86,12.45-4.41,5.89-11.47,8.05-11.47,8.05,0,0-2.52-15.69-14.02-25.26-4.08-3.4-8.25-4.63-12.66-4.76-7.25-.23-15.81,5.88-13.87,17.78.63,3.94,2.33,8.21,4.9,11.97,7.53,11.06,19.44,13.7,23.13,14.33-.04,1.42-1.41,6.77-5.79,10.99-2.66,2.57-7.37,5.32-13.01,5.32-4.57,0-8.55-2.3-11.35-4.97-3.38-3.22-6.24-8.38-6.87-12.33-.19-1.2-1.24-7.46,1.97-12.27,1.3-1.93,1.37-4.06.36-5.92-1.2-2.18-3.75-3.64-6.34-3.64-2.22,0-3.87,1.16-5.36,3.05-1.95,2.44-3.45,6.01-3.9,12.41-.72,9-12.51,24.39-21.03,24.12-6.77-.22-10.53-12.64-12.09-20.87,0-.03,18.24-30.47,22.57-58.43,4.21-27.11-.19-36.69-3.41-41.31C85.26,2,81.48-.08,77.3,0c-3.58.08-6.36,1.25-9.22,3.84-5.22,4.74-9.43,15.29-12.5,33.93-2.02,12.26-2.75,25.39-2.44,40.1.15,6.61.59,20.79,4.83,37.04,4.17,15.99,12.43,23.87,22.26,23.87,5.8,0,11.79-3.79,15.46-6.7,6.33-5.02,10.13-10.52,10.13-10.52,0,0,7.02,17,26.87,17.19,16.07.16,30.18-12.68,32.35-29.51l.02-.21.22-.05c10.78-2.44,17.74-9.76,17.74-9.76,0,0,3.85,14.38,11.44,25,4.21,5.89,10.64,14.65,18,14.58,4.43-.04,9.49-3.65,16.9-13.7,7.82-10.57,12.21-26.38,12.21-26.38,0,0,3.72,10.7,15.19,15.46,1.9,6.99,5.76,13.37,12.01,17.99,5.79,4.28,13.15,6.63,20.74,6.63h0c11.51,0,21.26-5.62,28.08-11.75,7.4-6.62,14.03-15.43,14.18-15.71,1.57-2.45.75-6.09-1.29-7.96-1.59-1.45-4.2-2.27-6.91-1.06Zm-180.35-11.58c-6.49-6.26-6.69-9.73-6.62-10.52.16-1.78,1.59-2.12,2.12-2.12,2.11,0,4.67,3.98,6.14,6.06,3.37,4.74,5.77,11.19,5.77,11.19,0,0-4.06-1.39-7.41-4.61Zm-77.23-8.01s-.12-24.06,1.1-35.39c1.09-10.01,2.37-21.33,6.78-30.91.52-1.12,1.77-3.88,2.89-4.03.98-.13,1.86,2.04,2.46,4.71,1.95,8.87,1.13,19.21-1.74,32.78-3.17,15.01-11.49,32.84-11.49,32.84Zm202.1,19.61s.07-8.03,3.57-15.11c2.82-5.69,5.91-9.17,9.75-10.46,2.91-.98,5.84-.25,7.45,1.79,1.2,1.51,1.58,3.53,1.07,5.69-1.23,5.19-4.63,9.01-7.44,11.37-6.53,5.5-14.4,6.72-14.4,6.72Z"/></g></g></svg>