<?xml version="1.0" encoding="UTF-8"?>
<svg id="Layer_1" data-name="Layer 1" xmlns="http://www.w3.org/2000/svg" viewBox="0 0 252 117">
  <defs>
    <style>
      .cls-1 {
        fill: #682262;
      }

      .cls-2 {
        fill: #231f20;
      }
    </style>
  </defs>
  <g>
    <path class="cls-2" d="m32.33,74.73h-.16c-.62,0-.94.32-.94.96v8.03l-5.59-8.12c-.38-.6-.8-.87-1.36-.87h-.35c-.6,0-.98.44-.98,1.14v10.47c0,.43.17.94.98.94h.18c.6,0,.91-.32.91-.94v-8.19l5.58,8.11c.3.44.79,1.02,1.51,1.02h.23c.58,0,.96-.44.96-1.12v-10.47c0-.64-.32-.96-.96-.96Z"/>
    <path class="cls-2" d="m44.27,76.6c.6,0,.92-.33.92-.92s-.34-.94-.92-.94h-6.1c-.63,0-.96.33-.96.94v10.67c0,.62.33.94.96.94h6.1c.59,0,.92-.34.92-.92s-.33-.94-.92-.94h-4.99v-3.71h4.4c.6,0,.92-.33.92-.92s-.32-.94-.92-.94h-4.4v-3.25h4.99Z"/>
    <path class="cls-2" d="m55.36,76.6c.6,0,.92-.33.92-.92s-.34-.94-.92-.94h-6.1c-.62,0-.96.33-.96.94v10.67c0,.61.34.94.96.94h6.1c.59,0,.92-.34.92-.92s-.33-.94-.92-.94h-4.99v-3.71h4.4c.6,0,.92-.33.92-.92s-.32-.94-.92-.94h-4.4v-3.25h4.99Z"/>
    <path class="cls-2" d="m63.85,74.73h-3.52c-.61,0-.94.33-.94.94v10.69c0,.6.33.92.94.92h3.52c2.9,0,6-1.65,6-6.27s-3.1-6.29-6-6.29Zm-2.4,1.88h2.26c2.66,0,4.12,1.56,4.12,4.4s-1.46,4.42-4.12,4.42h-2.26v-8.82Z"/>
    <path class="cls-2" d="m80.41,85.42h-5.18v-9.75c0-.62-.33-.94-.96-.94h-.16c-.62,0-.96.33-.96.94v10.67c0,.61.34.94.96.94h6.3c.61,0,.94-.33.94-.92s-.34-.94-.94-.94Z"/>
    <path class="cls-2" d="m91.17,76.6c.6,0,.92-.33.92-.92s-.34-.94-.92-.94h-6.1c-.62,0-.96.33-.96.94v10.67c0,.61.34.94.96.94h6.1c.59,0,.92-.34.92-.92s-.33-.94-.92-.94h-4.99v-3.71h4.4c.6,0,.92-.33.92-.92s-.32-.94-.92-.94h-4.4v-3.25h4.99Z"/>
    <path class="cls-2" d="m107.47,75.88l-.1-.19c-.29-.55-.51-.94-1.35-.94h-.19c-.85,0-1.06.39-1.35.94l-.1.19c-1.5,2.71-2.78,5.94-4.04,10.19-.07.3-.13.68.08.95.14.18.37.27.68.27h.42c.8,0,.96-.61,1.12-1.2l.06-.24c.2-.74.47-1.69.75-2.6h4.95c.28.85.53,1.75.77,2.6l.06.24c.16.59.32,1.2,1.12,1.2h.42c.31,0,.54-.09.68-.27.21-.27.15-.65.08-.96-1.26-4.24-2.54-7.47-4.04-10.17Zm.3,5.56h-3.7c.62-1.67,1.19-2.96,1.83-4.16.68,1.38,1.33,2.71,1.87,4.16Z"/>
    <path class="cls-2" d="m119.62,81.94c1.64-.29,3.18-1.5,3.18-3.45,0-2.39-1.56-3.76-4.29-3.76l-3.2.02c-.63,0-.96.33-.96.94v10.67c0,.42.17.92.96.92h.09c.65,0,.98-.31.98-.92v-4.3h1.2c1.47,2.63,3.17,5.38,4.83,5.38.73,0,1.07-.39,1.25-.69l.14-.22-.21-.15c-1.41-.98-3.13-3.03-3.97-4.45Zm1.16-3.47c0,1.31-1.13,1.78-2.19,1.78h-2.21v-3.65h2.21c1.45,0,2.19.63,2.19,1.87Z"/>
    <path class="cls-2" d="m133.73,74.73h-7.54c-.6,0-.94.34-.94.94s.33.92.94.92h2.72v9.74c0,.61.34.94.96.94h.16c.63,0,.96-.33.96-.94v-9.74h2.74c.61,0,.94-.33.94-.92s-.34-.94-.94-.94Z"/>
    <path class="cls-2" d="m141.27,79.84c-1.83-.48-2.45-.91-2.45-1.7,0-1,1.01-1.69,2.46-1.69,1.71,0,2.3.62,2.48.89l.1.15.18-.04c.61-.12,1-.53,1-1.06,0-.88-1.16-1.77-3.75-1.77s-4.59,1.51-4.59,3.6c0,2.21,1.91,2.98,3.78,3.45,2.07.51,3.12.99,3.12,2.16,0,.85-.89,1.77-2.84,1.77-1.36,0-2.35-.43-2.71-1.18l-.1-.2-.21.05c-.92.23-1.11.75-1.11,1.15,0,1.19,1.7,2.02,4.13,2.02,2.94,0,4.92-1.54,4.92-3.84s-2.27-3.19-4.4-3.75Z"/>
    <path class="cls-2" d="m207.74,80.54c-12.45-.04-34.47-.21-34.47-.21-10.17-.08-18.42-.12-19.75-.1-3.77.08-5.46,2.94.39,3.02,2.21.03,11.8-.02,22.87-.09,0,0,18.36-.23,30.04-.27l.91-2.35Z"/>
    <path class="cls-2" d="m221.6,82.45c-1.4,0-2.92-.07-3.5-.2-.51-.11-.64-.62.07-.87.31-.11,3.27-.21,3.27-.21h2.07c3.32.04,6.37.61,6.37.61-.92.21-2.45.36-3.93.46l.18.58c5.16-.34,8.03-1.12,8.03-1.12,0,0-3.64-.68-7.28-1.01-1.17-.1-2.49-.22-3.72-.23,0,0-3.59-.11-7.22.06-.27.01-1.01.02-2.12.02l-1.09,2.35c1.55.01,2.69.03,3.21.07,2.25.16,4.36.13,5.85.08l-.21-.6Z"/>
  </g>
  <g>
    <g>
      <path class="cls-1" d="m50.8,43.46c15.15,0,30.1-12.14,30.1-23.27,0-8.23-9.13-10.94-18.26-10.94-19.56,0-41.43,14.04-50.26,29.09C.04,59.31,19.5,79.28,36.36,58.61c4.01-4.82,7.52-10.13,10.83-15.35,1.1.1,2.31.2,3.61.2Zm-7.22-1c-2.81,4.51-5.92,9.23-9.13,13.74-11.54,16.25-31.1,5.72-18.76-16.75,8.23-14.85,30.1-27.49,48.35-27.49,11.84,0,13.54,4.72,13.44,9.33-.1,7.82-15.45,19.56-26.18,19.76-1,0-1.81,0-2.71-.1,6.72-10.73,12.14-20.67,17.15-24.78.2-.2.7-1.91-.7-1.61-.9.2-4.31,1.4-11.44,12.14-2.41,3.71-5.32,8.43-8.63,13.64-3.61-1.1-5.52-2.81-6.52-3.31-1.1-.6-.9,3.51,5.12,5.42Z"/>
      <path class="cls-1" d="m169.38,41.16c3.11,1.1,6.12-4.31,3.41-5.52-1.6-.8-3.51,0-4.31,1.61-.7,1.4-.6,3.41.9,3.91Z"/>
      <path class="cls-1" d="m223.25,55.1c-7.52,6.62-10.93,8.43-13.04,8.23-5.42-.6,2.11-10.93,4.31-13.64,4.21-4.92,1.41-6.92-2.91-5.32-.8.3-2.11.8-3.31,1.1.8-1.3,1.5-2.51,2.01-3.71,1.81-4.61-5.92-5.22-7.42,1.1-.5,2.31.4,3.61,1.71,4.31-1.85,2.38-4.4,5.38-7.11,7.84-.04.03-.08.04-.12.08-3.11,2.81-6.12,5.32-8.73,6.62-7.93,3.91-11.44,2.71-12.14-.4,2.91-1.3,11.13-7.72,12.94-9.73,8.13-9.43.6-13.74-10.53-3.61-2.66,2.43-4.52,5.28-5.35,8.02-6.81,5.87-10.11,7.42-12.41,7.23-2.11-.2-2.51-2.11-1-5.52,1.41-3.41,7.02-10.73,7.72-11.84.9-1.3-.8-3.31-1.6-2.71-.7.5-2.61,3.01-6.02,8.03-.92,1.3-1.7,2.57-2.32,3.79-.06.03-.12.07-.18.13-7.52,6.62-10.83,8.33-13.04,8.23-2.11-.2-4.61-2.91.3-8.63,4.62-5.32,5.02-10.03,3.51-11.34-2.71-2.61-9.23,1.2-13.84,5.72,2.11-7.52-3.11-7.42-5.72-5.92-2.71,1.61-6.92,5.82-7.92,6.82,1.5-2.11,3.61-4.71,3.71-5.92.1-.8-1.1-2.31-1.41-2.01-.49.5-3.44,3.99-9.06,12.88-.08.03-.17.08-.27.16-3.11,2.81-6.12,5.32-8.73,6.62-7.93,3.91-11.44,2.71-12.14-.4,2.91-1.3,11.14-7.72,12.94-9.73,8.13-9.43.6-13.74-10.53-3.61-2.7,2.47-4.57,5.36-5.38,8.14-6.71,5.79-9.88,7.4-11.87,7.21-5.42-.6,2.11-10.93,4.31-13.64,4.21-4.92,1.4-6.92-2.91-5.32-.8.3-2.11.8-3.31,1.1.8-1.3,1.5-2.51,2.01-3.71,1.81-4.61-5.92-5.22-7.42,1.1-.5,2.31.4,3.61,1.71,4.31-1.96,2.53-4.72,5.74-7.6,8.28-7.15,6.26-10.38,7.9-12.55,7.8-2.13-.2-4.68-2.97.3-8.79,0,0,.33-.28-.58-.24-.6.03-2.02.25-2.68.38-.77.15-1.05.65-1.05.65-4.97,7.55.52,11.06,3.91,10.97,5.49-.2,13.31-8.28,13.82-8.79,0,0,0,0,0,0,3.2-3.18,6.34-6.63,8.73-9.84,2.31-.1,4.82-1.4,5.42-.9.5.5-.4,2.11-2.51,4.51-6.82,8.03-5.62,14.85.3,15.05,3.43.14,8.64-4.04,11.54-6.64.05.82.21,1.6.5,2.33,1.3,3.71,4.61,5.52,9.73,4.82,3.51-.5,7.48-3.11,10.39-5.41-.02.03-.04.06-.06.09-1,1.61.4,4.61,1.91,2.71,1.61-1.91,5.62-8.63,16.25-17.35,1.81-1.5,5.32-2.01,1.91,4.01-3.31,6.02-6.92,11.24-7.52,12.34-.5,1.1,1.2,1.61,1.91,1.1,1.3-.9,8.23-10.53,11.84-13.74,3.61-3.21,8.33-5.82,9.23-4.21,1.1,1.91-2.71,6.02-4.21,8.03-6.32,8.23-.5,12.04,3.01,11.94,3.89-.14,8.95-4.26,11.69-6.76-.41,2.31.07,4.17,1.65,5.26,4.6,3.24,11.69-2.13,15.14-5.21.04.84.21,1.65.51,2.4,1.3,3.71,4.61,5.52,9.73,4.82,5.28-.75,11.6-6.26,13.77-8.35.06,0,.11-.03.17-.08,3.51-3.41,7.02-7.22,9.63-10.73,2.31-.1,4.81-1.4,5.42-.9.5.5-.4,2.11-2.51,4.51-6.82,8.03-5.62,14.85.3,15.05,4.82.2,13.14-8.13,13.64-8.63.4-.5.6-3.51-.5-2.51Zm-41.03-6.02c7.02-6.22,10.43-4.51,3.41,2.31-2.71,2.61-6.92,5.32-8.93,6.42.8-2.91,2.91-6.32,5.52-8.73Zm-83.37,0c7.02-6.22,10.43-4.51,3.41,2.31-2.71,2.61-6.92,5.32-8.93,6.42.8-2.91,2.91-6.32,5.52-8.73Zm-23.27-6.32c-.2.5-.9,1.5-1.71,2.81-.7-.3-1-.9-.8-2.01.4-2.51,3.51-3.11,2.51-.8Zm131.92,0c-.2.5-.9,1.5-1.7,2.81-.7-.3-1-.9-.8-2.01.4-2.51,3.51-3.11,2.51-.8Z"/>
    </g>
    <path class="cls-1" d="m194.8,90.42c-1.07-.16-2.24.26-2.91,1.04-.51.59-.67,1.32-.46,2.05.24.79.8,1.43,1.51,1.7.65.24,1.35.16,1.95-.22.25-.12.43-.33.53-.6.04-.13.06-.26.07-.4.8.68,1.25,1.68,1.33,2.98.05,2.55-1.32,4.99-3.66,6.52-1.9,1.34-4.13,1.66-6.28.9-2.67-.94-4.85-3.35-5.69-6.28-1.28-5.19,1.29-9.98,3.73-13.14-1.1,0-2.25.01-3.42.02-5.15,7.78-3.64,14.92-.66,18.76h0c2.13,2.5,5.29,4,8.33,4,.15,0,.31,0,.46-.01,3-.05,6.21-2.01,8.37-5.11,1.62-2.51,2.33-6.61.52-9.61-.95-1.4-2.34-2.37-3.73-2.6Z"/>
    <path class="cls-1" d="m219.61,74.2c1.9,1.36,3.43,3.45,4.39,5.5l-2.51-.05c-.57-.95-1.21-1.81-1.94-2.52-.96-.92-1.6-1.37-2.5-1.9-.23-.13-.46-.27-.69-.41-3.38,3.54-7.08,8.84-5.92,14.23.41,2.45,2.01,4.57,4.17,5.55,2.12,1.26,4.83.83,6.62-1.03,1.6-1.54,2.44-3.74,2.44-6.37,0-1.74-.39-3.57-1.05-5.27l2.26-.03c.16.48.3.94.42,1.38.66,2.59,1.02,6.4-.97,9.85-1.71,3.09-4.87,4.83-8.06,4.42-2.64-.26-5.24-2.05-6.76-4.69-3.83-6.82.87-14.33,4.01-18.2l.73-.75c-3.14-.92-6.94-.96-10.78-.09-4.23.87-8.12,2.48-11.51,4.71-1.3,0-2.85,0-4.58-.01,3.48-2.88,7.66-5.07,12.37-6.45,5.73-1.87,11.67-1.88,16.31-.03,2.72-2.8,5.88-5.25,8.94-7.62,2.53-1.96,5.14-3.98,7.53-6.21,2.43-2.34,5.17-5.23,6.97-8.95,1.93-3.84,2.76-7.01,2.61-9.99-.03-.26.08-.51.3-.65.2-.13.45-.14.64-.03.2.12.31.34.31.62.22,1.05.16,2.25.11,3.31-.02.3-.03.6-.04.87-.77,5.37-3.89,10.62-9.53,16.06-2.47,2.4-5.24,4.65-7.92,6.82-2.66,2.16-5.4,4.38-7.92,6.8,0,0,.84.57,1.55,1.12Z"/>
  </g>
</svg>